<svg id="Long_Division" data-name="Long Division" xmlns="http://www.w3.org/2000/svg" xmlns:xlink="http://www.w3.org/1999/xlink" viewBox="0 0 4800 2700"><defs><style>.cls-1,.cls-12{fill:none;}.cls-2{clip-path:url(#clip-path);}.cls-3{fill:#0f4b6a;}.cls-4{fill:#c3b4fb;}.cls-5{fill:#dbd4f8;}.cls-6{fill:#121214;}.cls-16,.cls-6{opacity:0.3;}.cls-7{fill:#d9e5e9;}.cls-8{fill:#c2d3d7;}.cls-9{fill:#026a9c;}.cls-10{fill:#f4fafa;}.cls-11{fill:#026a9d;}.cls-12{stroke:#bbbcbd;stroke-miterlimit:10;stroke-width:9.12px;}.cls-13{fill:#32526e;}.cls-14{fill:#28b2e9;}.cls-15{fill:#39b8f7;}.cls-17{fill:#d52821;}.cls-18{fill:#bbbdbf;}.cls-19{fill:#517fa1;}.cls-20{fill:#f76f6b;}.cls-21{fill:#fff;}.cls-22{fill:#f9a39f;}.cls-23{fill:#3a3a3a;}.cls-24{isolation:isolate;}.cls-25{fill:#b6babb;}.cls-26{fill:#f6a983;}.cls-27{fill:#ffbe98;}.cls-28{fill:#fcccb4;}.cls-29{fill:#303033;}.cls-30{fill:#fff5be;}.cls-31{fill:#f47319;}</style><clipPath id="clip-path"><rect class="cls-1" width="4800" height="2700"/></clipPath></defs><g class="cls-2"><rect class="cls-3" width="4800" height="2700"/><polygon class="cls-4" points="4406.66 236.7 3984.66 0.02 4406.45 0.28 4406.66 236.7"/><path class="cls-5" d="M4406.45.28V236.7L4800.15,8.19V0S4406.45-.11,4406.45.28Z"/><path class="cls-6" d="M-311.46,1672.15l2742,1583.08c30.54,17.63,80,17.63,110.58,0l1964-1133.91c30.53-17.63,30.53-46.21,0-63.84L1763.1,474.39c-30.54-17.63-80-17.63-110.58,0l-1964,1133.92C-342,1625.94-342,1654.52-311.46,1672.15Z"/><path class="cls-7" d="M-258.33,1583.53v-135.1L1668.61,471c34.45-19.88,90.3-19.88,124.75,0L4385.87,1853.81s0,122.06,0,135.09-8.61,26.06-25.84,36L2433.11,3137.43Z"/><path class="cls-8" d="M4385.89,1988.9c0-13,0-135.09,0-135.09l-467.26-249.23H2433.11V3137.43L4360.05,2024.91C4377.28,2015,4385.89,2001.93,4385.89,1988.9Z"/><path class="cls-9" d="M4387.45,1837.89c34.45-19.89,34.44-52.11,0-72l-82-47.26L2316.08,2867.19l144.42,83.21Z"/><path class="cls-7" d="M-258.33,1380.81V1245.72L1668.61,268.29c34.45-19.89,90.3-19.89,124.75,0l2592.51,1382.8s0,122.06,0,135.1-8.61,26.06-25.84,36L2433.11,2934.72Z"/><path class="cls-8" d="M4385.89,1786.18c0-13,0-135.09,0-135.09l-467.26-249.23H2433.11V2934.72L4360.05,1822.19C4377.28,1812.25,4385.89,1799.22,4385.89,1786.18Z"/><path class="cls-10" d="M-258.33,1245.72,1668.61,133.2c34.45-19.89,90.3-19.89,124.75,0L4360.05,1615.08c34.45,19.89,34.45,52.13,0,72L2433.11,2799.62Z"/><path class="cls-9" d="M-14.73,1245.18c32.31-18.65,84.7-18.65,117,0s32.31,48.9,0,67.56-84.71,18.65-117,0S-47,1263.84-14.73,1245.18Z"/><path class="cls-9" d="M277.82,1414.08c32.31-18.65,84.7-18.65,117,0s32.31,48.91,0,67.56-84.71,18.66-117,0S245.5,1432.74,277.82,1414.08Z"/><path class="cls-9" d="M570.36,1583c32.32-18.65,84.71-18.65,117,0s32.31,48.9,0,67.56-84.72,18.65-117,0S538.05,1601.64,570.36,1583Z"/><path class="cls-9" d="M862.91,1751.89c32.32-18.65,84.71-18.65,117,0s32.31,48.9,0,67.56-84.71,18.66-117,0S830.6,1770.55,862.91,1751.89Z"/><path class="cls-9" d="M1155.46,1920.8c32.31-18.66,84.71-18.66,117,0s32.31,48.9,0,67.55-84.71,18.66-117,0S1123.15,1939.45,1155.46,1920.8Z"/><path class="cls-9" d="M1448,2089.7c32.31-18.65,84.7-18.65,117,0s32.31,48.9,0,67.56-84.71,18.65-117,0S1415.69,2108.36,1448,2089.7Z"/><path class="cls-9" d="M1740.56,2258.61c32.31-18.66,84.7-18.66,117,0s32.3,48.89,0,67.55-84.71,18.66-117,0S1708.24,2277.26,1740.56,2258.61Z"/><path class="cls-9" d="M2033.1,2427.51c32.32-18.65,84.71-18.65,117,0s32.31,48.9,0,67.55-84.7,18.66-117,0S2000.79,2446.16,2033.1,2427.51Z"/><path class="cls-9" d="M2325.65,2596.41c32.31-18.65,84.71-18.65,117,0s32.31,48.9,0,67.56-84.71,18.66-117,0S2293.34,2615.07,2325.65,2596.41Z"/><polygon class="cls-9" points="-285.73 1365.16 2460.51 2950.4 2460.51 3017.97 -285.73 1432.74 -285.73 1365.16"/><path class="cls-11" d="M4388.33,1904.55c13.78-8,24.95-27.31,24.95-43.22v-59.49c0,14.24-9.85,26.06-25.83,36.05L2460.5,2950.38V3018Z"/><path class="cls-12" d="M250.21,1149,1671.66,328.32c27.55-15.91,72.23-15.91,99.79,0l134.24,77.5c27.56,15.91,27.56,41.71,0,57.62L484.24,1284.1c-27.56,15.91-72.24,15.91-99.8,0l-134.22-77.5C222.66,1190.69,222.66,1164.9,250.21,1149Z"/><line class="cls-12" x1="317.34" y1="1245.36" x2="1838.54" y2="367.07"/><path class="cls-12" d="M601.25,1409.28,2492,2500.84c27.56,15.91,72.24,15.9,99.78,0L4012.22,1679.6c27.55-15.93,27.54-41.74,0-57.65L2122.48,531c-27.56-15.91-72.24-15.91-99.79,0L601.25,1351.66C573.69,1367.57,573.69,1393.37,601.25,1409.28Z"/><line class="cls-12" x1="668.17" y1="1448.15" x2="2189.63" y2="569.75"/><line class="cls-12" x1="785.39" y1="1515.69" x2="2306.85" y2="637.3"/><line class="cls-12" x1="902.61" y1="1583.23" x2="2424.07" y2="704.84"/><line class="cls-12" x1="1019.83" y1="1650.78" x2="2541.29" y2="772.39"/><line class="cls-12" x1="1137.06" y1="1718.32" x2="2658.51" y2="839.93"/><line class="cls-12" x1="1254.28" y1="1785.87" x2="2775.73" y2="907.48"/><line class="cls-12" x1="1371.5" y1="1853.42" x2="2892.95" y2="975.02"/><line class="cls-12" x1="1488.72" y1="1920.96" x2="3010.18" y2="1042.57"/><line class="cls-12" x1="1605.94" y1="1988.5" x2="3127.4" y2="1110.11"/><line class="cls-12" x1="1723.16" y1="2056.05" x2="3244.62" y2="1177.65"/><line class="cls-12" x1="1840.38" y1="2123.59" x2="3361.84" y2="1245.2"/><line class="cls-12" x1="2074.82" y1="2258.68" x2="3596.28" y2="1380.29"/><line class="cls-12" x1="2192.04" y1="2326.23" x2="3713.5" y2="1447.84"/><line class="cls-12" x1="2309.26" y1="2393.77" x2="3830.72" y2="1515.38"/><line class="cls-12" x1="2426.48" y1="2461.32" x2="3947.94" y2="1582.93"/><line class="cls-12" x1="1957.6" y1="2191.14" x2="3479.06" y2="1312.75"/><path class="cls-13" d="M2372.58,2595.44a110.3,110.3,0,0,0-21.07-9.06c-36.82-12-80.3-5.14-125.11,20.68a303.55,303.55,0,0,0-55.1,41.41c-28,26.23-52.92,58.13-73,92.86l50.33,29.05c20.46-35.41,46.56-67.52,75.39-91.46a226.73,226.73,0,0,1,31.17-22c17-9.8,33.06-15.65,47.69-17.81,15.57-2.3,29.5-.39,40.87,6.19s19.85,17.4,25.64,31.8c19.9,2.06,40.78-.13,58.46-6.51C2418.17,2637,2399.48,2611,2372.58,2595.44Z"/><path class="cls-13" d="M1845.44,2833.27c-16.32-9.43-27.13-28-31.7-53.36a163.88,163.88,0,0,1-2.51-29.15c0-30.52,7.24-63.65,19.72-96.15a375.65,375.65,0,0,1,25.25-52.9l-50.33-29.06a424.47,424.47,0,0,0-25.61,52.7c-16.11,39.67-25.62,80.83-26.43,120,0,1.8-.22,3.64-.22,5.44,0,61.92,22.38,108.95,63,132.42,17.38,10,36.82,15,57.58,15,27.77,0,57.92-8.95,88.59-26.64,1.56-.9,3.07-2,4.62-2.92l-59.91-34.59C1883.27,2842.79,1861.78,2842.74,1845.44,2833.27Z"/><path class="cls-13" d="M2080.05,2426.55a110.3,110.3,0,0,0-21.07-9.06c-36.82-12-80.3-5.14-125.11,20.68a303.2,303.2,0,0,0-55.1,41.41c-28,26.22-52.93,58.13-73,92.85l50.34,29.06c20.46-35.41,46.56-67.52,75.4-91.46a226,226,0,0,1,31.16-22c17-9.8,33.06-15.65,47.69-17.81,15.57-2.3,29.5-.39,40.87,6.19s19.84,17.4,25.64,31.79c19.9,2.07,40.77-.12,58.46-6.5C2125.64,2468.1,2106.94,2442.08,2080.05,2426.55Z"/><path class="cls-13" d="M1856.23,2601.1l-50.34-29,0,.07,50.33,29.06A.56.56,0,0,0,1856.23,2601.1Z"/><path class="cls-1" d="M1553,2663.46c16.35,9.47,37.84,9.52,62.08.78l-93.77-54.14C1525.88,2635.46,1536.68,2654,1553,2663.46Z"/><path class="cls-13" d="M1553,2664.52c-16.32-9.43-27.12-28-31.69-53.36a163.84,163.84,0,0,1-2.52-29.15c0-30.52,7.25-63.65,19.73-96.15a374.49,374.49,0,0,1,25.24-52.9l-50.33-29.06a424.47,424.47,0,0,0-25.61,52.7c-16.1,39.67-25.62,80.83-26.42,120,0,1.8-.23,3.65-.23,5.44,0,61.92,22.38,108.95,63,132.42,17.39,10,36.82,15,57.59,15,27.76,0,57.91-8.94,88.59-26.64,1.56-.9,3.06-2,4.61-2.92l-59.91-34.59C1590.86,2674,1569.37,2674,1553,2664.52Z"/><path class="cls-13" d="M1787.52,2257.66a110.3,110.3,0,0,0-21.07-9.06c-36.82-12-80.31-5.14-125.11,20.68a303.55,303.55,0,0,0-55.1,41.41c-28,26.22-52.93,58.13-73,92.85l50.34,29.06c20.45-35.41,46.55-67.53,75.39-91.46a226.73,226.73,0,0,1,31.17-21.95c17-9.8,33-15.65,47.69-17.81,15.57-2.3,29.5-.39,40.87,6.19s19.84,17.4,25.64,31.79c19.9,2.07,40.77-.13,58.46-6.5C1833.1,2299.2,1814.41,2273.19,1787.52,2257.66Z"/><path class="cls-13" d="M1563.81,2431.83l-50.34-29.06,0,.07,50.33,29.06Z"/><path class="cls-1" d="M1260.58,2494.19c16.35,9.46,37.84,9.51,62.08.78l-93.77-54.14C1233.45,2466.19,1244.26,2484.76,1260.58,2494.19Z"/><path class="cls-13" d="M1260.62,2495.77c-16.31-9.42-27.12-28-31.69-53.36a163.84,163.84,0,0,1-2.52-29.15c0-30.52,7.25-63.65,19.73-96.14a375.18,375.18,0,0,1,25.24-52.91l-50.33-29.06a425.88,425.88,0,0,0-25.61,52.7c-16.1,39.67-25.62,80.83-26.42,120,0,1.8-.22,3.65-.22,5.44,0,61.92,22.37,109,63,132.42,17.39,10,36.83,15,57.59,15,27.77,0,57.91-8.94,88.59-26.64,1.56-.9,3.06-2,4.61-2.92l-59.9-34.59C1298.46,2505.29,1277,2505.24,1260.62,2495.77Z"/><path class="cls-13" d="M1495,2088.77a109.94,109.94,0,0,0-21.07-9.06c-36.82-12-80.31-5.14-125.11,20.68a303.2,303.2,0,0,0-55.1,41.41c-28,26.22-52.93,58.13-73,92.85l50.34,29.06c20.45-35.41,46.55-67.53,75.39-91.46a227.25,227.25,0,0,1,31.16-21.95c17-9.81,33.06-15.65,47.7-17.81,15.57-2.3,29.5-.4,40.87,6.19s19.84,17.4,25.64,31.79c19.89,2.07,40.77-.13,58.46-6.51C1540.57,2130.31,1521.88,2104.3,1495,2088.77Z"/><path class="cls-13" d="M1271.38,2262.55l-50.33-29.06a.43.43,0,0,1,0,.07l50.33,29.06A.25.25,0,0,0,1271.38,2262.55Z"/><path class="cls-1" d="M968.16,2324.91c16.34,9.47,37.83,9.52,62.07.78l-93.76-54.14C941,2296.91,951.84,2315.48,968.16,2324.91Z"/><path class="cls-13" d="M968.22,2327c-16.32-9.42-27.13-28-31.7-53.35a164,164,0,0,1-2.52-29.16c0-30.52,7.25-63.65,19.73-96.14A375.24,375.24,0,0,1,979,2095.46l-50.34-29.06A427.31,427.31,0,0,0,903,2119.1c-16.1,39.67-25.62,80.83-26.42,120,0,1.81-.22,3.65-.22,5.44,0,61.92,22.38,109,63,132.42,17.38,10,36.82,15,57.58,15,27.77,0,57.91-8.94,88.59-26.64,1.56-.9,3.07-2,4.62-2.92l-59.91-34.59C1006.05,2336.54,984.56,2336.49,968.22,2327Z"/><path class="cls-13" d="M1202.45,1919.88a110.34,110.34,0,0,0-21.07-9.07c-36.82-12-80.3-5.13-125.1,20.69a303.67,303.67,0,0,0-55.11,41.4c-28,26.23-52.92,58.14-73,92.86l50.33,29.06c20.46-35.41,46.56-67.53,75.4-91.46a226.64,226.64,0,0,1,31.16-21.95c17-9.81,33.06-15.66,47.69-17.81,15.58-2.3,29.51-.4,40.88,6.19s19.84,17.4,25.64,31.79c19.89,2.07,40.77-.13,58.46-6.51C1248,1961.42,1229.35,1935.41,1202.45,1919.88Z"/><path class="cls-13" d="M979,2093.27l-50.33-29.05a.43.43,0,0,0,0,.07l50.33,29.06S979,2093.3,979,2093.27Z"/><path class="cls-1" d="M675.74,2155.63c16.34,9.47,37.83,9.52,62.07.78L644,2102.27C648.61,2127.63,659.42,2146.2,675.74,2155.63Z"/><path class="cls-13" d="M675.81,2158.28c-16.32-9.43-27.13-28-31.69-53.36a164,164,0,0,1-2.52-29.16c0-30.51,7.25-63.64,19.73-96.14a374.6,374.6,0,0,1,25.24-52.91l-50.33-29.06a424.47,424.47,0,0,0-25.61,52.7c-16.11,39.67-25.62,80.84-26.42,120,0,1.8-.23,3.64-.23,5.43,0,61.92,22.38,109,63,132.42,17.39,10.05,36.82,15,57.59,15,27.76,0,57.91-8.94,88.59-26.64,1.55-.9,3.06-2,4.61-2.92l-59.91-34.59C713.64,2167.79,692.15,2167.74,675.81,2158.28Z"/><path class="cls-13" d="M909.92,1751a110.34,110.34,0,0,0-21.07-9.07c-36.82-12-80.3-5.13-125.11,20.68a304.47,304.47,0,0,0-55.1,41.41c-28,26.23-52.93,58.14-73,92.86L686,1925.92c20.46-35.41,46.56-67.52,75.4-91.45a226.13,226.13,0,0,1,31.16-22c17-9.8,33.06-15.65,47.69-17.81,15.57-2.3,29.51-.39,40.87,6.2s19.85,17.39,25.64,31.79c19.9,2.07,40.78-.13,58.46-6.51C955.51,1792.53,936.82,1766.52,909.92,1751Z"/><path class="cls-13" d="M686.54,1924l-50.33-29.06,0,.07,50.33,29.06A.43.43,0,0,1,686.54,1924Z"/><path class="cls-1" d="M383.31,1986.35c16.35,9.47,37.84,9.52,62.08.78L351.62,1933C356.19,1958.36,367,1976.93,383.31,1986.35Z"/><path class="cls-13" d="M383.4,1989.53c-16.31-9.43-27.12-28-31.69-53.36a164,164,0,0,1-2.52-29.16c0-30.51,7.25-63.64,19.73-96.14A376.23,376.23,0,0,1,394.16,1758l-50.33-29.06a426,426,0,0,0-25.61,52.71c-16.1,39.66-25.62,80.83-26.42,120,0,1.8-.23,3.64-.23,5.43,0,61.92,22.38,109,63,132.42,17.39,10,36.83,15,57.59,15,27.77,0,57.91-9,88.59-26.65,1.56-.9,3.06-2,4.61-2.92l-59.91-34.58C421.24,1999.05,399.75,1999,383.4,1989.53Z"/><path class="cls-13" d="M617.39,1582.1a109.71,109.71,0,0,0-21.07-9.07c-36.82-12-80.3-5.13-125.11,20.68a304,304,0,0,0-55.1,41.41c-28,26.23-52.93,58.13-73,92.86l50.33,29c20.46-35.41,46.56-67.52,75.39-91.46a226.73,226.73,0,0,1,31.17-22c17-9.8,33.06-15.65,47.69-17.81,15.57-2.3,29.5-.39,40.87,6.19s19.85,17.4,25.64,31.8c19.9,2.07,40.78-.13,58.46-6.51C663,1623.64,644.29,1597.63,617.39,1582.1Z"/><path class="cls-13" d="M394.12,1754.72l-50.33-29.06-.05.07,50.34,29.06Z"/><path class="cls-1" d="M90.89,1817.07c16.35,9.47,37.84,9.53,62.08.78L59.2,1763.72C63.77,1789.08,74.58,1807.65,90.89,1817.07Z"/><path class="cls-13" d="M91,1820.78c-16.31-9.43-27.12-28-31.69-53.36a163.87,163.87,0,0,1-2.52-29.16c0-30.51,7.25-63.64,19.73-96.14a374.55,374.55,0,0,1,25.25-52.9l-50.34-29.06a427.31,427.31,0,0,0-25.61,52.7c-16.1,39.66-25.62,80.83-26.42,120,0,1.8-.22,3.64-.22,5.43,0,61.92,22.38,109,63,132.43,17.38,10,36.82,15,57.58,15,27.77,0,57.91-9,88.59-26.64,1.56-.9,3.06-2,4.61-2.93l-59.9-34.58C128.83,1830.3,107.34,1830.25,91,1820.78Z"/><path class="cls-13" d="M324.86,1413.2a110.3,110.3,0,0,0-21.07-9.06c-36.82-12-80.3-5.13-125.11,20.68a303.67,303.67,0,0,0-55.1,41.41c-28,26.23-52.93,58.13-73,92.86l50.34,29.05c20.46-35.41,46.56-67.52,75.39-91.46a226.73,226.73,0,0,1,31.17-22c17-9.8,33-15.65,47.69-17.81,15.57-2.3,29.5-.39,40.87,6.19s19.84,17.4,25.64,31.8c19.89,2.07,40.77-.13,58.46-6.51C370.45,1454.75,351.75,1428.73,324.86,1413.2Z"/><path class="cls-13" d="M101.7,1585.44l-50.33-29.06,0,.07,50.34,29.06A.43.43,0,0,0,101.7,1585.44Z"/><path class="cls-13" d="M32.33,1244.31a110.3,110.3,0,0,0-21.07-9.06c-36.82-12-80.31-5.14-125.11,20.68a303.2,303.2,0,0,0-55.1,41.41c-28,26.23-52.93,58.13-73,92.86l50.33,29c20.46-35.41,46.56-67.52,75.4-91.46a226.73,226.73,0,0,1,31.17-22c17-9.8,33.05-15.65,47.69-17.81,15.57-2.3,29.5-.39,40.87,6.19s19.84,17.4,25.64,31.8c19.89,2.07,40.77-.13,58.46-6.51C77.91,1285.86,59.22,1259.84,32.33,1244.31Z"/><polygon class="cls-6" points="741.31 379.37 224.66 673.44 0 522.4 0 131.42 154.97 42.49 432.15 201.74 525.12 255.16 564.68 277.89 681.97 345.28 741.31 379.37"/><polygon class="cls-14" points="681.97 210.28 681.97 345.28 213.19 615.73 0 492.63 0 186.97 432.15 201.74 598.72 207.43 681.97 210.28"/><polygon class="cls-9" points="681.97 210.28 564.68 277.89 213.19 480.5 0 357.41 0 0 320.51 0 635.77 183.4 681.97 210.28"/><path class="cls-15" d="M763.07,100.85,635.77,183.4l-37,24-73.6,47.73L288.27,408.76C185.46,395.1,86.72,366.32,0,333.5V0H361.17C556.25,69.31,763.07,100.85,763.07,100.85Z"/><path class="cls-16" d="M2360.43,254.1l110.49-63.65c16.93-9.76,44.12-9.76,60.8,0L3082.84,508.6c16.64,9.57,16.64,25.42,0,35l-110.43,63.77c-16.65,9.79-44.21,9.79-60.79,0L2360.43,289.29C2343.9,279.58,2343.9,263.9,2360.43,254.1Z"/><path class="cls-17" d="M2350.51,184l157.24-55,160.74,134.64,263,151.73-171.07,98.74L2436,327c-5.3-3-8.83-6.67-10.85-10.64Z"/><path class="cls-13" d="M2708.05,374.17l153.87,86,154.64-81,75.23,132.91h0c4.38,8.55.75,18.2-10.75,24.8l-110.49,63.71c-16.59,9.64-44.15,9.64-60.67,0L2775.3,522.76l-10.6-10L2694,389.3Z"/><polygon class="cls-18" points="2775.3 522.76 2699.93 389.3 2702.1 376.53 2684.74 380.62 2760.39 514.15 2775.3 522.76"/><path class="cls-19" d="M2870.87,290.47l134.59,77.66c16.93,9.8,16.93,25.42,0,35.06L2895.09,467c-16.71,9.73-44,9.73-60.64,0L2699.93,389.3Z"/><path class="cls-20" d="M2684.74,380.62,2360.43,193.46c-16.53-9.73-16.53-25.42,0-35.18l110.49-63.59c16.93-9.8,44.12-9.8,60.8,0l324.37,187.19Z"/><polygon class="cls-19" points="2546.28 172.13 2764.7 298.37 2748.45 307.83 2529.83 181.81 2546.28 172.13"/><polygon class="cls-19" points="2726.16 320.66 2709.73 330.24 2573.57 251.62 2589.93 242.22 2726.16 320.66"/><polygon class="cls-21" points="2699.93 389.3 2870.87 290.47 2856.09 281.88 2684.74 380.62 2699.93 389.3"/><polygon class="cls-20" points="3927.25 0 3927.25 508.42 3796.32 433.65 3331.01 167.94 3036.91 0 3927.25 0"/><polygon class="cls-22" points="3927.25 0 4328.06 0 4328.06 276.05 3927.25 508.42 3927.25 0"/><path class="cls-23" d="M4139.65,263.34c-49.53,28.6-89.63,5.75-89.79-51.17s39.67-126.2,89.21-154.8,89.88-5.61,90,51.31S4189.18,234.74,4139.65,263.34Z"/><g class="cls-24"><path class="cls-25" d="M4206.3,66.86l-14.53-8.44c14,8.16,22.74,25.5,22.81,50.14.14,49.31-34.76,109.76-77.94,134.68-21.59,12.47-41.21,13.59-55.39,5.35l14.53,8.45c14.18,8.24,33.81,7.12,55.4-5.35,43.17-24.93,78.07-85.38,77.93-134.68C4229,92.36,4220.34,75,4206.3,66.86Z"/><path class="cls-21" d="M4204.63,36.3c-17.53-10.19-41.79-8.76-68.55,6.69-53.18,30.7-95.95,105.08-95.78,166.19.09,30.36,10.76,51.69,28,61.71l14.53,8.44c-17.23-10-27.9-31.35-28-61.7-.17-61.11,42.6-135.5,95.78-166.19,26.76-15.46,51-16.88,68.55-6.7Z"/><path class="cls-21" d="M4150.61,51.44c-53.18,30.69-95.95,105.08-95.78,166.19s43.23,85.63,96.41,54.93,96.21-104.94,96-166S4203.79,20.73,4150.61,51.44Zm.57,200.25c-42.91,24.77-78,4.76-78.18-44.55-.14-49.61,34.76-110.06,77.67-134.83,43.17-24.93,78.3-4.91,78.44,44.7C4229.25,166.31,4194.35,226.76,4151.18,251.69Z"/></g><path class="cls-15" d="M3871.24,125.49s-12.2,171.78-74.92,308.16c-33.8,73.5-82.27,136.72-151.41,157.22L3215,327.86S3276.82,283,3331,167.94c21.11-44.83,41.06-100.31,55.74-167.94H3653Z"/><path class="cls-13" d="M1149.32,1358.14c-4.11-5.81-11.46-14.41-9.69-22.17,1.2-5.27,6.9-8.8,11.57-10.66,13-5.19,27-1,36.51,8.66,9.15,9.25,19.94,24,17.37,37.83-2.35,12.63-14.49,20.65-25.76,24.62l7.23,9.4c16.13-22.66,43.16-36.34,68.94-44.82,7.79-2.56,4.45-14.93-3.41-12.34-29.23,9.61-58.38,25.11-76.58,50.7-3.19,4.48,2.12,11.2,7.23,9.41,13-4.59,25.76-12.62,31.88-25.52,6.53-13.77,3-28.7-4.67-41.27-7.36-12.08-17.28-23.49-30.73-28.75-14-5.48-31.19-3.31-43,6.2-5.59,4.52-9.42,10.79-9.58,18.11-.23,10.17,6,19.13,11.62,27.06,4.73,6.67,15.83.28,11-6.46Z"/><path class="cls-13" d="M864.57,1516.81c-4.11-5.81-11.46-14.41-9.7-22.17,1.21-5.27,6.91-8.8,11.58-10.66,13-5.19,27-1,36.51,8.66,9.15,9.25,19.94,24,17.37,37.83-2.35,12.63-14.49,20.66-25.76,24.62l7.23,9.41c16.13-22.67,43.16-36.35,68.94-44.83,7.79-2.56,4.45-14.93-3.41-12.34C938.1,1517,909,1532.44,890.75,1558c-3.19,4.47,2.12,11.2,7.23,9.4,13-4.59,25.76-12.62,31.88-25.51,6.53-13.78,3-28.71-4.67-41.27-7.36-12.09-17.28-23.5-30.73-28.75-14-5.48-31.19-3.32-43,6.2-5.59,4.51-9.42,10.79-9.58,18.11-.23,10.17,6,19.13,11.62,27,4.73,6.67,15.83.28,11.05-6.46Z"/><path class="cls-13" d="M1209.17,1301.62l22.68-45.47-8.76,2.29,93.94,61.41c6.92,4.53,13.34-6.56,6.47-11l-93.94-61.41c-2.76-1.8-7.27-.69-8.76,2.3l-22.69,45.47c-3.67,7.35,7.37,13.84,11.06,6.46Z"/><path class="cls-13" d="M1250.41,1310.4l60.1-57.61c6-5.71-3.1-14.75-9-9l-60.1,57.61c-6,5.71,3.1,14.76,9.05,9.05Z"/><path class="cls-13" d="M1295.5,1197.32c-2.18,36.94,41.87,58.35,71.93,64.91,16.53,3.61,38.69,5.83,53.78-3.67,6.94-4.36,11.42-12.1,8.19-20.24-3.41-8.6-12.69-12.74-21.31-14-10.18-1.49-22.39-.3-30.65,6.38-8.74,7.06-9,19.14-.11,26.22,6.38,5.09,15.5-3.92,9.06-9.06-5.69-4.54-1.06-8.22,4.47-9.89a33.83,33.83,0,0,1,19.33-.15c3.76,1.15,10.34,4.75,5.8,8.79-3.85,3.42-10,4.51-14.93,5.1-14.24,1.73-28.76-.75-42.33-5-13-4.11-25.93-10.38-36.06-19.7-8.45-7.77-15.07-17.78-14.37-29.65.49-8.23-12.32-8.2-12.8,0Z"/><path class="cls-13" d="M1118.52,1496.21l-119-180.31-2.29,8.76q90.55-50.78,180.37-102.86,88.62-51.4,176.46-104.14,49.44-29.67,98.62-59.77c7-4.3.59-15.38-6.46-11.06q-87.37,53.48-175.55,105.61-88.52,52.35-177.8,103.37-50.94,29.12-102.11,57.79c-2.89,1.63-4.18,5.91-2.29,8.76l119,180.32c4.52,6.84,15.61.44,11.06-6.47Z"/><path class="cls-13" d="M901.23,1458.67l67.38-51.34c6.46-4.93.09-16.06-6.47-11.06l-67.37,51.35c-6.47,4.93-.1,16.05,6.46,11.05Z"/><path class="cls-13" d="M900.15,1453.5l44.54,26.22c3.95,2.32,10-.59,9.63-5.53-.72-9.72-.93-20.25,8.1-26.34,7.21-4.85,17.18-6.68,25.72-5.88,25.88,2.45,12.17,35.9,2.74,48.52-4.94,6.6,6.17,13,11,6.46,9.13-12.22,15-27.4,13.55-42.84-1.28-14-10.73-22.76-24.49-24.62-12-1.61-26,1-36,8-12.48,8.7-14.54,22.61-13.49,36.75l9.63-5.53-44.54-26.21c-7.11-4.19-13.56,6.87-6.46,11Z"/><path class="cls-13" d="M930.84,1168.44c-8.45,5.46-14.83,13.5-15.37,23.86-.52,10.16,5.24,19.26,11.9,26.43,14.32,15.4,34.44,28.94,55.6,31.71,19.39,2.53,44.66-3.79,55.37-21.71,12-20-6.65-40.69-21.67-52.26-20.9-16.11-47.88-24-74-18.23-8,1.77-4.64,14.11,3.41,12.34,18.05-4,37.49.16,53.26,9.48a90.77,90.77,0,0,1,21.08,17c4.91,5.41,9.95,12.85,8.66,20.56-2.35,14.09-23.22,20.07-35,20.59-17.68.79-32.87-7.6-46.3-18.29-7-5.58-15.28-12.26-18.46-21-3-8.07,1.28-15,8-19.41s.49-15.55-6.46-11.06Z"/><path class="cls-13" d="M1000.13,1117.24c29.11,29.12,61.18,55.14,95,78.58,6.79,4.71,13.19-6.38,6.46-11a670.07,670.07,0,0,1-92.4-76.58c-5.84-5.83-14.89,3.22-9.06,9Z"/><path class="cls-13" d="M1302.38,1426.25c-2.58,22.87,14.08,42.14,32.12,53.72,21.11,13.55,51.31,22.81,75.93,14.22,10.62-3.71,19.49-11,23.25-21.79,3.06-8.84,1.66-18.57-2-27-9.23-21.33-32.57-33.52-54.59-37-22.64-3.52-53.83-2.07-70.8,15.68-5.7,6,3.34,15,9,9,11.68-12.21,32.81-13.93,48.66-13.25,18.91.8,39.93,7.38,51.68,23.17,9.21,12.38,9.92,29.61-5.36,37.33-19.21,9.7-45.53,1.76-63.18-7.87-17-9.25-34.34-25.24-32-46.32.92-8.17-11.89-8.11-12.8,0Z"/><path class="cls-13" d="M1386.59,1596.12q77.65-63.3,160.47-119.88,86.36-59.25,177.1-111.75,52.89-30.72,107-59.29c7.29-3.85.83-14.91-6.46-11q-95.62,50.58-187.52,107.8-87.47,54.67-170.57,115.94-45.33,33.54-89.07,69.18c-6.39,5.21,2.71,14.22,9,9Z"/><path class="cls-13" d="M1548.83,1572.15c-8.63-10,10.71-17.05,17.61-18.21,11.61-2,27.59-.86,36.06,8.41,6.79,7.44,6.89,19.89,6.63,29.4-.32,12-5.38,20.92-16.11,26.63l7.76,10.06c19-18.78,43.23-31.42,68.2-40.23,7.72-2.73,4.39-15.1-3.4-12.35-27.08,9.55-53.3,23.16-73.86,43.52-5.26,5.22,1.41,13.44,7.76,10.06,11.39-6.07,19.5-16.08,21.61-29,1.77-10.89,1.43-24-2.12-34.53-9.18-27.17-48.7-31.9-71.11-19.1-12.89,7.37-18.43,22.38-8.09,34.35,5.4,6.25,14.42-2.84,9.06-9Z"/><path class="cls-13" d="M1649.21,1529c15.48-9.87,29.9-21.48,41.78-35.54l-10.06-1.3c17.11,24.74,38.29,46.17,61.86,64.77,6.39,5.06,15.52-3.94,9-9.05-22.66-17.89-43.39-38.38-59.85-62.18-2.15-3.11-7.2-4.68-10.06-1.3-11.21,13.27-24.57,24.23-39.19,33.54-6.93,4.42-.51,15.51,6.47,11.06Z"/><path class="cls-13" d="M1690.7,1547.16l60-40.35c6.8-4.57.4-15.67-6.46-11l-60,40.35c-6.8,4.57-.4,15.67,6.47,11.05Z"/><path class="cls-13" d="M1692.5,1665.78c-3.2-1.56-6.93-3.89-5.51-8,1.63-4.69,7.46-7.37,11.78-8.68,13-3.92,28.27-2.38,40.69,2.86,11.6,4.89,20.41,14.6,22.32,27.23,1.84,12.12-4.24,21-15.12,25.92l7.75,10c15.73-16.82,34-30.69,53.77-42.49,7.06-4.22.63-15.3-6.46-11-20.6,12.32-39.94,26.92-56.36,44.49-5.19,5.55,1.29,13,7.76,10,12.42-5.64,20.73-16.33,21.72-30.07.91-12.7-4.53-25.86-13.49-34.75-10.58-10.49-25.33-15.23-39.85-16.72-13.63-1.4-30.28.29-40.68,10.17-10.82,10.28-7.93,25.59,5.22,32,7.37,3.61,13.87-7.43,6.46-11.06Z"/><path class="cls-13" d="M1774.9,1611.52l44.9-35.59c6.46-5.12-2.66-14.13-9-9.06l-44.91,35.59c-6.45,5.12,2.66,14.13,9.06,9.06Z"/><path class="cls-13" d="M1781.1,1591.88c3,15.68,16.7,26.71,30.37,33.25,2.82,1.35,7.31,1.08,8.76-2.3,3-7,6.34-13.57,13.25-17.46a31.23,31.23,0,0,1,23.65-2.81c4.73,1.38,11.28,4.76,12.26,10.19,1.36,7.53-7.46,15.65-11.9,20.6-5.49,6.11,3.54,15.2,9.06,9.05,7.47-8.32,16.78-18.41,15.57-30.5-.95-9.56-8.94-16.61-17.34-20.14-10.76-4.52-23.11-4-33.75.62-10.92,4.71-17.29,13.33-21.85,24l8.76-2.3c-10.86-5.19-22.09-13-24.49-25.59-1.54-8.09-13.89-4.66-12.35,3.4Z"/><path class="cls-13" d="M1751.61,1808.08q98.06-74.68,201.51-141.88,107.55-70,219.77-132.55,65.15-36.39,131.59-70.38c5.76-3,2.91-12-3.23-11.93l-12.49.07c-8.24,0-8.25,12.85,0,12.8l12.49-.07-3.23-11.93q-116.74,59.8-229.51,126.94-108.3,64.68-212,136.71Q1800,1755.28,1745.14,1797c-6.47,4.92-.09,16,6.47,11Z"/><path class="cls-13" d="M2006.7,1735.43c-2.49-5.15-4.07-11.3-.56-16.39,2.67-3.87,7.48-6.34,11.81-7.78,11.21-3.72,25-2.12,34,5.9,4.21,3.73,6.78,8.69,9,13.77,2.68,6.14,5.35,13,5,19.77-.56,10.67-9.73,17.61-19.07,21l6.23,10.7c24.49-24.09,54.57-41.65,86-55.09,3.2-1.37,3.85-6,2.3-8.76-1.89-3.31-5.6-3.65-8.76-2.3-32.42,13.87-63.34,32.26-88.6,57.09-4.36,4.29,0,12.91,6.23,10.7,14.54-5.18,27.4-16,28.44-32.39.62-9.71-3.1-19.1-7-27.78-3.29-7.31-7.71-13.75-14.23-18.54-13.87-10.21-33.41-11.29-48.8-4-6.89,3.26-13.06,8.52-15.82,15.79-3.2,8.42-1,17,2.77,24.83,3.58,7.42,14.62.94,11.06-6.46Z"/><path class="cls-13" d="M2091.57,1638.36c-1.28,20.17,2.4,39.86,18.29,53.65,14.58,12.65,34,18.22,53,18.27,15.87,0,41.07-3.64,47.17-21.24,6.89-19.85-19.24-25.86-33.36-24.21-9.7,1.13-19.32,4.26-26.68,10.89-7.72,7-10.85,16.62-12.81,26.51-1.6,8,10.74,11.49,12.35,3.41,1.21-6.12,2.49-12.56,6.4-17.61s9.56-7.74,15.56-9.31,12.92-2.21,19.1-.65c4.37,1.11,9.67,3.58,6.43,8.58-3.34,5.16-10.67,7.41-16.29,8.82a74.77,74.77,0,0,1-21,1.94c-14.28-.52-29.23-4.66-40.34-14-13.85-11.64-16.16-27.8-15.06-45.05.52-8.23-12.28-8.2-12.81,0Z"/><path class="cls-13" d="M1055,1089.71l81,74.74c6,5.58,15.12-3.45,9-9l-81-74.74c-6-5.58-15.12,3.45-9,9Z"/><path class="cls-13" d="M2167.75,1803.57c-3.35-1.48-7.81-3.92-5.88-8.23s7.17-6.32,11.3-7.49c12.16-3.46,26.5-2.14,38.12,2.75,10.7,4.5,19.13,13.14,22.15,24.45,1.61,6,1.21,12.13-3.53,16.64s-11.23,6.62-17.47,7.29l4.53,10.93c21.66-21.13,49.55-35,78-44.42,7.78-2.58,4.45-15-3.41-12.35-30.59,10.14-60.41,25-83.68,47.72-3.68,3.58-1.16,11.54,4.53,10.93,13.71-1.48,28.79-7.85,33.45-22,4.28-13-2.21-28.27-10.93-38-9.73-10.79-23.85-16.13-38-17.92-13.57-1.72-30.52-.72-41.25,8.85-11.31,10.1-8,25.9,5.54,31.86,7.47,3.3,14-7.73,6.47-11Z"/><path class="cls-13" d="M2234.27,1751.66,2271,1719c6.17-5.48-2.92-14.51-9.06-9l-36.73,32.65c-6.17,5.48,2.92,14.51,9.06,9.05Z"/><path class="cls-13" d="M2237.65,1740.8a123,123,0,0,0,15.3,11.88c5.31,3.5,11.32,7.66,17.55,9.29a14.75,14.75,0,0,0,15.42-4.91c3.69-4.56,5.06-10.53,9.18-14.84,7.23-7.54,23.52-10.5,30.79-1.42s-.69,20.49-8.3,26.08c-6.57,4.83-.19,15.95,6.47,11.06,10.78-7.93,19.41-19.66,16.91-33.73-2.4-13.57-15-21.64-28.22-21.69-14.86,0-27,8-33.8,21-.91,1.73-1.86,5.49-3.87,6.22-2.4.87-7.87-3.31-9.85-4.47a109.55,109.55,0,0,1-18.53-13.48c-6.08-5.53-15.16,3.5-9,9Z"/><path class="cls-13" d="M2139.81,1966.07q93.58-56.86,189.07-110.53,97.3-54.72,196.38-106.2,56.94-29.61,114.39-58.18c7.38-3.67.9-14.72-6.46-11.05q-101,50.25-200.4,103.67-97.5,52.46-193.25,108.09-53.4,31.07-106.2,63.15c-7,4.27-.6,15.35,6.47,11Z"/><path class="cls-13" d="M2471.12,1837.07l136.67,75.75c7.22,4,13.68-7.06,6.47-11.06L2477.58,1826c-7.22-4-13.68,7.06-6.46,11Z"/><path class="cls-13" d="M1687.56,810.38c41.49,35.49,86.53,66.63,133.71,94.07,7.13,4.15,13.58-6.91,6.46-11.06-46.23-26.89-90.45-57.28-131.12-92.06-6.23-5.33-15.33,3.68-9,9Z"/><path class="cls-13" d="M1746.15,778.27l142.44,74.91c7.29,3.83,13.77-7.22,6.46-11.06l-142.44-74.9c-7.28-3.83-13.76,7.21-6.46,11Z"/><path class="cls-13" d="M1895.48,697l110.8,78.05c6.75,4.76,13.15-6.34,6.46-11.05l-110.8-78c-6.75-4.76-13.15,6.34-6.46,11Z"/><path class="cls-13" d="M1917.14,703.07c1.84-6.55,4-13.06,9.66-17.36,4.87-3.71,11.6-5.41,17.62-5.69,5.3-.24,13.43.28,16,5.9,2.31,5.1-.54,12.49-2.25,17.27-2.3,6.4-7.72,12.39-8.42,19.25-.71,7,4.4,12,11,13.47,8.08,1.75,16.83,0,24.94-.71l27.59-2.46,63.07-5.63c8.14-.72,8.22-13.53,0-12.8l-59.13,5.27-30.55,2.72c-4.52.41-9.05.84-13.57,1.21-2.19.18-9.2,1.25-10.67-.12.48.45,0-.07.56-1.11.77-1.51,1.68-2.95,2.49-4.43a77.64,77.64,0,0,0,5.6-12.9c2.12-6.44,3.81-13.83,2.22-20.59-3.64-15.49-21.51-18.57-35-16.48a42,42,0,0,0-21.3,9.39c-6.72,5.84-9.88,14.05-12.23,22.4-2.24,7.94,10.11,11.33,12.35,3.4Z"/><path class="cls-13" d="M2076.28,578.31c38.57,37.73,81.48,70.82,126.79,100.05l4.93-11.7-8.67-1.78c-8-1.66-11.48,10.68-3.4,12.34l8.67,1.79c7.07,1.45,11.18-7.68,4.93-11.7-44.42-28.66-86.38-61.06-124.2-98.06-5.89-5.76-14.95,3.28-9,9.06Z"/><path class="cls-13" d="M1598.25,971.46c16.42-18.43,36.2-33.17,57.53-45.44,7.14-4.1.7-15.17-6.46-11-22.2,12.76-43,28.26-60.12,47.43-5.47,6.14,3.56,15.22,9,9.06Z"/><path class="cls-13" d="M1647.47,1005c19-19.54,41.23-35.43,64.94-48.8,7.18-4,.73-15.11-6.46-11.05-24.61,13.87-47.79,30.53-67.54,50.79-5.75,5.91,3.29,15,9.06,9.06Z"/><path class="cls-13" d="M1870.61,1162.47c16.42-18.42,36.2-33.17,57.53-45.43,7.15-4.1.7-15.17-6.46-11-22.2,12.75-43,28.26-60.12,47.43-5.47,6.13,3.56,15.22,9,9Z"/><path class="cls-13" d="M1919.83,1196c19-19.53,41.23-35.42,64.94-48.79,7.18-4,.73-15.11-6.46-11.06-24.61,13.88-47.78,30.53-67.54,50.8-5.75,5.9,3.29,15,9.06,9Z"/><path class="cls-13" d="M1982.13,1016.11a1566.34,1566.34,0,0,1,131.11,109.29c6,5.62,15.09-3.42,9.05-9.05a1593.57,1593.57,0,0,0-133.69-111.29c-6.61-4.93-13,6.18-6.47,11.05Z"/><path class="cls-13" d="M2051.74,983.59A953.71,953.71,0,0,1,2169,1073.53c6.1,5.52,15.18-3.51,9.05-9a974.8,974.8,0,0,0-119.85-92c-6.91-4.52-13.33,6.56-6.46,11.06Z"/><path class="cls-13" d="M2151.36,841.35l103.36,77.19c6.61,4.93,13-6.18,6.46-11.06l-103.36-77.19c-6.6-4.93-13,6.18-6.46,11.06Z"/><path class="cls-13" d="M2272.56,1027.52l181.08-134c6.55-4.84,1.06-14.78-6.46-11.05l-2.53,1.25c-7.38,3.66-.91,14.71,6.46,11.06l2.53-1.26-6.46-11.05-181.08,134c-6.55,4.85-.17,16,6.46,11Z"/><path class="cls-13" d="M2378.49,1141.09c-10.62-6.88.23-16.4,8-19.85,13.78-6.15,31.16-4.79,45.33-.87s27.42,11.78,34.73,25.08c5.23,9.53,8,21.91,5.79,32.7-2.9,14.44-13.76,23.55-27.32,28.07l4.93,11.7,105.54-58.57c7.21-4,.76-15.06-6.46-11l-105.54,58.56c-6.24,3.46-2,14,4.93,11.7,16.2-5.4,30-16,35.2-32.79,4.55-14.67,1.69-31.4-5-44.94-8.65-17.37-25.79-28.12-44.09-33s-41.12-5.72-58.05,4.25c-6.95,4.1-13.39,10.59-15,18.76-1.78,9.06,3.28,16.56,10.64,21.33,6.93,4.49,13.36-6.59,6.46-11.06Z"/><path class="cls-13" d="M2486.12,1060l61-50.19c6.37-5.24-2.73-14.25-9.05-9l-61,50.19c-6.37,5.24,2.73,14.25,9,9Z"/><path class="cls-13" d="M2486.05,1049.31c-.83,8.52-.88,17.42,4,24.85,4.35,6.59,11.24,10.61,18.64,13,13.69,4.45,32.18,2.84,40.56-10.33,5.51-8.65,3.79-22,13.18-28,10.54-6.68,26.75-4.07,37.63.34,6.08,2.47,11.85,6.17,14,12.69,3.19,9.52-2.16,20.17-6.12,28.62-3.48,7.41,7.56,13.92,11.06,6.46,7.4-15.77,14.26-34.67,1.11-49.59-8.8-10-24.11-13.94-36.86-14.9-13.35-1-28.53,2.12-36.29,14.07-3.14,4.84-4.36,10.5-5.81,16-1.34,5.05-3,9.63-8,12-8,3.74-18.51,2.26-26.06-1.87-9.21-5-9.19-14-8.28-23.39.8-8.19-12-8.14-12.8,0Z"/><path class="cls-6" d="M2551.36,1149.14l250.66,176s-18.38,79.66,42.89,118.47,149.11,40.85,224.69,40.85,343.14,6.12,343.14,6.12,214.47,167.49,478,195.07,414.72,33,414.72,33v346.9l498.3,284.94V1351.68L3713,729.72,3109.43,882.91Z"/><path class="cls-26" d="M2955.12,354.79s-91,55.5-104.34,131-31.08,339.67-31.08,339.67l137.64-71Z"/><path class="cls-26" d="M2821.92,925.34s6.66,48.84,35.52,97.69,48.84,122.1,57.72,155.4,28.86,66.6,75.48,71,97.68-51.06,119.88-195.36L2915.16,827.66Z"/><path class="cls-26" d="M3010.62,452.47l-31.08,477.31s113.22,155.41,175.39,193.15,124.32,86.58,159.84,117.66,108.78-53.28,82.14-131c0,0,48.84-44.4,46.62-115.45l242-79.92,293.05-264.19L3829.83,325.92,3226,334.81Z"/><path class="cls-27" d="M2937.36,212.7s-26.64,55.5-31.08,111,4.44,253.09-28.86,333S2750.87,841,2770.85,896.48s66.61,79.92,137.65,59.94S3186,599,3188.23,476.89Z"/><path class="cls-28" d="M2808.79,769.6c9.22-14.56,32.13-9.09,33.08,8.12,0,.36,0,.73,0,1.1,0,14-25.84,75.87-36.8,101.49a30.13,30.13,0,0,1-14.88,15.37c-7.15,3.39-16.64,8.73-23.36,15.72a6.72,6.72,0,0,1-11.57-4.13c-.83-11.41-.76-25.64,2.24-39.65C2762.41,844.89,2792.81,794.84,2808.79,769.6Z"/><path class="cls-27" d="M3973.91,264.12l-224,163.93h0c-3,.64-245.14,53.09-401.79,24.41l-159.86,24.42L2937.36,212.7s-2.22-37.74,99.9-55.5,419.59-55.51,419.59-55.51,144.31-59.93,230.9-44.4C3752.8,69,3876.74,173.38,3973.91,264.12Z"/><polygon class="cls-29" points="2604.24 1087.31 2551.36 1149.14 2625.8 1116.45 2604.24 1087.31"/><path class="cls-30" d="M2861.7,1012.7l-89.43-121.2-168,195.81h0c-1.46,1.72-2.22,4.52-1.72,7.84.88,8.29,7.67,17.52,15.11,20.51,3.15,1.55,5.91,1.71,8.17.8h0Z"/><path class="cls-31" d="M4455.5-166.32l-90.34-122L2775.88,887.93c-8.81,6.73-13.15,19.23-11.44,36.34,3.94,33.79,32.7,72.63,63.84,86.27,15.91,6.63,29.1,6,38.36-.69Z"/><polygon class="cls-13" points="3511.48 359 3514.47 383.56 4066.12 -25.57 4063.28 -49.97 3511.48 359"/><path class="cls-27" d="M4874.19,781.81l15.32,677.1s-389.22-136.17-529.09-127.29-246.42,8.88-415.15-55.51-264.19-113.22-355.22-230.88c0,0-62.16-22.21-128.75-13.33s-166.51,6.66-166.51,6.66-333,91-430.69-31.07c0,0-40-57.73,37.74-137.65s275.29-204.25,275.29-204.25,44.4-28.86,104.34-20,297.49,28.86,441.8-84.36l26.64-133.2,224-163.93c32.16,30,61.4,58.6,84.58,81.78,93.25,93.25,168.73,195.37,326.35,277.51S4874.19,781.81,4874.19,781.81Z"/><path class="cls-28" d="M3092.31,943.33a211.27,211.27,0,0,1,.44,72.95,55.28,55.28,0,0,1-49.36,45.79c-46.29,4.39-121.34,7.22-148.21-16.29-40-35-26.64-88.25,23.31-116.55,26.24-14.87,67.19-26.53,100.15-34.24A60.78,60.78,0,0,1,3092.31,943.33Z"/></g></svg>