<svg id="Layer_1" data-name="Layer 1" xmlns="http://www.w3.org/2000/svg" xmlns:xlink="http://www.w3.org/1999/xlink" viewBox="0 0 4500 2500"><defs><style>.cls-1{fill:none;}.cls-2{fill:#aed3f0;}.cls-3{fill:#c3dcf3;}.cls-10,.cls-16,.cls-17,.cls-18,.cls-19,.cls-21,.cls-22,.cls-23,.cls-24,.cls-25,.cls-26,.cls-27,.cls-3,.cls-5,.cls-6,.cls-7,.cls-8,.cls-9{fill-rule:evenodd;}.cls-4{clip-path:url(#clip-path);}.cls-5{fill:url(#linear-gradient);}.cls-6{fill:#60a2e0;}.cls-7{fill:#dbeaf8;}.cls-8{fill:#adcfef;}.cls-9{fill:url(#linear-gradient-2);}.cls-10{fill-opacity:0.16;}.cls-11{fill:#348579;}.cls-12{fill:#2a6c62;}.cls-13{fill:#255f56;}.cls-14{fill:#2a6b2a;}.cls-15{fill:#44ae9e;}.cls-16{fill:#dc751f;}.cls-17,.cls-28{fill:#ec6198;}.cls-18,.cls-20{fill:#294270;}.cls-19{fill:#192945;}.cls-21{fill:#3a5d9d;}.cls-22{fill:#ffc787;}.cls-23{fill:#ffab65;}.cls-24{fill:#b7567c;}.cls-25{fill:#212121;}.cls-26{fill:#313131;}.cls-27{fill:#edd573;}</style><clipPath id="clip-path"><rect class="cls-1" width="4500" height="2499.98"/></clipPath><linearGradient id="linear-gradient" x1="1290.18" y1="1789.62" x2="1291.36" y2="1789.62" gradientTransform="matrix(-1969.26, 1142.29, 1142.29, 1969.26, 499400.34, -4996829.8)" gradientUnits="userSpaceOnUse"><stop offset="0" stop-opacity="0"/><stop offset="1"/></linearGradient><linearGradient id="linear-gradient-2" x1="1289.87" y1="1790.5" x2="1291.05" y2="1790.5" gradientTransform="matrix(2639.82, -2667.8, -2667.8, -2639.82, 1371713.46, 8169577.64)" gradientUnits="userSpaceOnUse"><stop offset="0" stop-color="#fff" stop-opacity="0"/><stop offset="1" stop-color="#fff"/></linearGradient></defs><g id="c50"><rect class="cls-2" width="4500" height="2499.98"/><path class="cls-3" d="M4500,2500H1777c189.78-256.15,452-422.81,769.47-468.42,166.18-23.89,340.44-30.37,507.54-11,383.85,44.46,1066.8,236.35,1413.68,6.61q16.72-11.06,32.36-23.42Zm0-1909c-58.36-60-123.24-112.55-193-155.42-161.9-99.46-358.3-141.69-543.07-173.83C2856.89,103.9,1954.37,580,1054,381.88,806.85,327.5,501.57,201.07,301.88,0H4500Z"/><rect class="cls-1" width="4500" height="2499.98"/><g class="cls-4"><path class="cls-5" d="M2018.86,405.63l409.48,54A113,113,0,0,1,2525.19,555c58.35,388.86,298.74,1991.06,298.74,1991.06l-632.26,48.56Z"/><path class="cls-6" d="M-28.7,195.55S1750.6,310.72,2259.7,343.69c77.32,5,139.27,66.11,145.57,143.56,39.62,487,173.05,2126.52,173.05,2126.52L24.51,2632.08Z"/><path class="cls-7" d="M-54.62,245.82,2201.45,390.33c78.13,5,140.74,66.1,147.11,143.56l171.07,2080.28L-1.95,2632.08Z"/><path class="cls-8" d="M-27,271.75l-.57-25.93,2232.4,144.51c77.32,5,139.28,66.1,145.58,143.56l169.27,2080.28-36.86.27L2315.38,557.53c-6.3-77.46-68.25-138.56-145.54-143.56Z"/><path class="cls-9" d="M1828.1,365.93l376.69,24.4c77.32,5,139.28,66.1,145.58,143.56l17.29,212.41Q1224.72,1577.36,207.94,2563.42q-35.15,34.13-70.75,67.86l-112.68.8L9.85,1960.71C121.51,1854.61,217.4,1762.55,234,1746.9,450.61,1542.12,682,1351.84,906,1155.27,1210.78,887.8,1512.11,618.72,1828.1,365.93ZM510.58,280.65,986,311.44C638.76,597.28,307.83,905.71-6.21,1225.73L-17,731-4.9,720.22C163.94,570.22,335.33,423,510.58,280.65Z"/><path class="cls-10" d="M2479.67,2614.47l98.65-.7L2523.26,1937c-12.39-10.79-25.28-21-39.89-28.81-80.75-43.35-123.35-20.06-198.87-36.12-25.82-5.51-43.51-37.65-70.46-46.44l-95.11-26.25c-48.85-12,36.86,91.25,43.85,101.87,39.66,60.25,58.9,143.22,69.52,214.73,10,67.16,13.65,134,37.91,198.14,29.54,78.13,87.45,137.51,140.8,199,18.36,21.14,27.72,47.71,44.26,70C2463.18,2593.78,2471.33,2604.19,2479.67,2614.47Z"/><path class="cls-11" d="M3453.92,1603.86s-79.68,708.1,118.62,1137.81c-52.35,19.83-83.91,12.61-83.91,12.61s-206.3-850.86-34.71-1150.42"/><path class="cls-11" d="M3172.42,2005.74s242.52,483.91,276.7,738.94c48.24,89.83,87.65-13.17,87.65-13.17s-126.93-505.15-364.35-725.77"/><path class="cls-12" d="M3200.76,2195.63s165.11,408.56,180.13,618.64c33.13,76,68-5.84,68-5.84s-75.27-419.45-248.12-612.8"/><path class="cls-12" d="M3202.78,2512.22s119,93.58,159.92,299.5c46.57,3,48.92-29.57,48.92-29.57S3267.76,2450,3122,2459.1c50.09,24.29,80.76,53.12,80.76,53.12"/><path class="cls-11" d="M3503.82,2652.32s-15.77-208.83,137.75-382.13c75.68-85.46,47.85-137.83,116.18-168s162.9-106.4,186.76-138.77S4375,1769,4488.78,1791.77c-116.37,48.46-206.83,240.47-266.62,253.87s-127.21,95-204.49,168.61-150.21,46.37-202.13,82.95S3575,2475.11,3503.82,2652.32"/><path class="cls-13" d="M3586.1,2471c21.18-38,44.17-74.93,67.81-111.24,12-18,24.45-35.79,38.11-52.34,13.67-16.29,29.17-31.53,45-46a521.77,521.77,0,0,1,50.65-39.91c17.67-12.44,36-24.65,52.73-39.05,16.92-14,32.08-30.8,46.17-46.8,14.51-15.31,31.36-28.9,48.57-41.81,69.63-51.08,145.14-94.38,219.73-138.6l225.22-130.87c-76.35,41.35-153.28,81.64-229,124.15s-151.45,85.39-222.31,136.67c-17.57,13-34.81,26.64-50.32,42.78-14.79,16.45-29,31.87-45.31,45.9-16.08,14.08-33.88,26.2-51.59,38.89a530.9,530.9,0,0,0-51.27,41.14c-16,15-31.74,30.19-45.26,47.83-13.45,17.43-25.4,35.73-36.87,54.29-23,37.06-42.83,75.94-62,115"/><path class="cls-14" d="M3742.75,2144.12a441.11,441.11,0,0,0-50.22,85,269.75,269.75,0,0,0-16.31,47c-4,16.15-6.16,33-5,49.91l.22,3.06h3.05c16.76,0,33.49-.19,50.23-1.15s33.47-2.51,50-5.45a305.83,305.83,0,0,0,48.81-12.25c15.59-5.95,31.51-12.89,43.27-25-12.48,11.24-28.58,17-44.29,21.84a306.68,306.68,0,0,1-48.57,10.28c-16.44,2.1-32.95,3.71-49.54,4.46s-33.18.73-49.79.55l3.26,3c-2.6-32.07,7.34-64.19,19.32-94.31a463.34,463.34,0,0,1,20.86-44.4,492.25,492.25,0,0,1,24.67-42.6"/><path class="cls-13" d="M3840.26,2074.32c-16.38,21.13-28.91,45.07-39.57,69.64s-18.3,50.5-24.26,76.68l-.86,3.79,3.91.16c32.47,1.37,65.19-1,97-8.05,31.55-7.36,62.86-18.56,89.09-37.74-27.74,16.64-58.84,26.33-90.18,32.5a411.72,411.72,0,0,1-47.57,6.27c-16,1-32,.88-48,.47l3.06,4c5.29-26,13.16-51.34,22.41-76.2,9.63-24.7,20.78-48.94,35-71.49"/><path class="cls-13" d="M4020.57,1925.32a491.48,491.48,0,0,0-51.25,73.15c-14.83,25.91-27.15,53.67-33.1,83.51l-.78,3.93,4.06-.07q44.17-.77,88.14-5.13c29.26-3,58.44-6.87,87.3-12.58-29.26,2.81-58.49,5.4-87.75,7.27q-43.83,3.2-87.79,3.85l3.27,3.86c5.17-28.79,17.45-56,31-82.25a692.24,692.24,0,0,1,46.93-75.54"/><path class="cls-13" d="M4192.51,1875.85a441.54,441.54,0,0,0-59.38,47.6,222.34,222.34,0,0,0-25.73,28.45c-7.58,10.33-14.87,21.54-17.25,35.19l-.45,2.65,2.57.84c13.7,4.45,27.5,5.13,41.18,5.49s27.32-.08,40.91-.83a772.9,772.9,0,0,0,81-9.66c-27.1,1.71-54.17,3.45-81.22,4.09-13.51.42-27,.58-40.47.1s-27-1.63-39.26-5.26l2.1,3.49c1.79-11.6,8.43-22.6,15.62-32.61a295.26,295.26,0,0,1,24.34-28.6,663,663,0,0,1,56.07-50.94"/><path class="cls-15" d="M3410.62,1668.67s31.39-292.56,214.89-364.4,232.95-154.55,348-211.67,245.84,20.64,245.84,20.64-144.29,23.89-268.51,145.49-356.7,345.84-540.25,409.94"/><path class="cls-11" d="M3410.62,1668.67s62.12-196.54,245.61-268.38,211.32-185.24,326.39-242.37,236.76-44.68,236.76-44.68-144.29,23.89-268.51,145.49-356.7,345.84-540.25,409.94"/><path class="cls-11" d="M2973.9,2557.92s-78.86-114.36-197.46-169.61-196.05-27-263.74-51.72-230.44-35.69-300.29-.85-194,55.7-222.38,208.3c44.8-37.72,130.48-10.74,221.35,6.62s183.62-58.58,264.6-39.74S2637.05,2593,2719.73,2585s254.17-27.11,254.17-27.11"/><path class="cls-15" d="M3225.38,2520.15s-15-167.13-166.35-227.42-292.84-98.84-361.94-184.78-257.21-104.17-420.44.05c128.55-25.95,312.11,72.68,510.23,202.35s438.5,209.8,438.5,209.8"/><path class="cls-11" d="M3225.38,2520.15s-15-167.13-166.35-227.42-284.57-19.59-353.68-105.53-265.47-183.42-428.7-79.2c128.55-25.95,312.11,72.68,510.23,202.35s438.5,209.8,438.5,209.8"/><path class="cls-15" d="M3344.39,2502.27s-79.71-382.31-254.75-433.12-186.82-206.67-374.82-263-346.91-170.85-566.68-113.65c209.69,36.59,278.8,121.76,379,221s206.12,137.46,248.52,175.67,174.07,167.58,245.46,180.31,270.36,143.53,323.24,232.83"/><path class="cls-11" d="M3344.39,2502.27S3223.32,2180,3048.28,2129.22s-175.84-205.5-363.85-261.82-316.52-232.09-536.29-174.89c209.69,36.59,278.8,121.76,379,221s206.12,137.46,248.52,175.67,174.07,167.58,245.46,180.31,270.36,143.53,323.24,232.83"/><path class="cls-15" d="M3585.2,2483.65s127.71-231.32,317.68-237.55,167.85,119.1,341.86,42.76,485.44,58.43,532,193.14c-178.49-101.62-294-106.41-530.57-35.46s-522.42-10.45-661,37.11"/><path class="cls-11" d="M3585.2,2483.65s134.31-136.6,324.26-142.83,164.74,76.73,338.74.39,482,6.08,528.56,140.79c-178.49-101.62-294-106.41-530.57-35.46s-522.42-10.45-661,37.11"/><path class="cls-12" d="M3572.54,2741.67s-69.23-191.52,122.28-334.83c-93.32,10.13-182.75,142-188.41,315.64-.33,79.65,66.13,19.19,66.13,19.19"/><path class="cls-15" d="M3515.43,2016s119-208.28,21.5-477-113.45-257.51-205.61-372.09-167.2-262.72-320.25-253-145-84.51-281.48,6.84c77.07-16,239,33.85,255.48,144.29s60.49,183.55,109.86,225.94,50.14,158.53,107.1,229.69S3366,1798.25,3424,1854.31s64.46,187.94,62.69,198.16,28.77-36.43,28.77-36.43"/><path class="cls-15" d="M3167,1988.58s31.64-350.07-64.15-548.24-198.3-204.91-314.42-302.61-191-37.75-191-37.75,67.75,69.54,108.7,284.8,156.71,360.18,310.5,453.77,150.39,150,150.39,150"/><path class="cls-15" d="M3549.32,2095.32s50.59-370.94,245.53-484.35,213.08-80.71,358.58-111.42,332.86,12,424.59,64.66c-225.58-32.54-434.65,104.6-564.79,208.55s-463.91,322.56-463.91,322.56"/><path class="cls-11" d="M3549.32,2095.32s120.3-258.73,315.26-372.15,167.11-177.39,312.6-208.09,309.11-3.51,400.84,49.13c-225.58-32.54-434.65,104.6-564.79,208.55s-463.91,322.56-463.91,322.56"/><path class="cls-11" d="M3200.83,1995.8c-44-77.08-84.82-157.76-113.32-241.67-3.62-10.48-6.64-21.09-9.61-31.7-3.21-10.66-6-22.23-10-33.07a273,273,0,0,0-30.26-62.92c-25.82-39.24-59.72-68.94-79.7-108.08-10.57-19-17.59-40.32-27.07-61.17-9-20.82-19-41.16-29.23-61.31a1141.69,1141.69,0,0,0-68.6-116.91c-25.3-37.39-53.07-73.33-85.21-105.09-32.06-31.36-69.23-59.7-112.85-71.79,43.25,13.35,79.21,42.48,110.12,74.49,31,32.4,57.49,68.81,81.54,106.61a1133.67,1133.67,0,0,1,64.73,117.8c9.58,20.26,18.87,40.67,27.17,61.44,4.4,10.31,8,20.77,12.11,31.27l6.37,16.07,7.37,15.7c20.27,42.26,54.65,74.47,77.07,111.24A252.62,252.62,0,0,1,3048,1696c3.48,10.43,5.64,20.89,8.61,31.87,2.77,11.17,5.62,22.32,9,33.23,13.1,43.9,30.19,86.12,48.47,127.7,18.53,41.55,38.34,82.11,60.2,122.33Z"/><path class="cls-11" d="M3119,1543.9q-7.71,56.91-16.81,113.52c-3.27,18.82-6.35,37.65-10.16,56.3s-8.16,37.37-15.09,54.49l5.26-1.88q-25.63-13.18-51.63-25.69c-17.38-8.18-34.73-16.49-52.52-23.81-35.39-15-71.45-28.67-108.63-38.37,18.24,6,36,13.21,53.66,20.69q26.55,10.95,52.59,23.1c34.75,16.08,69.2,32.85,103,50.89l3.75,2,1.51-3.88c7.22-18.47,11.13-37.3,14.89-56.15,3.55-18.89,6.76-37.81,9.16-56.84q7.56-57,11-114.37"/><path class="cls-11" d="M3017.39,1381.84c2.69,38.19,3.37,76.47,2.92,114.64-.84,38.16-2.77,76.32-8.67,113.91l4.8-3c-41.21-13.17-82-27.92-121.58-45.44-19.87-8.61-39.48-17.84-58.4-28.31-18.76-10.52-38.15-21.17-52.37-37.81,13.23,17.5,32.12,29.59,50.4,41.21,18.72,11.22,38.15,21.19,57.83,30.54s39.89,17.57,60.21,25.41,40.83,15.24,61.7,21.55l4.2,1.28.6-4.29a734,734,0,0,0,6.87-115,926.68,926.68,0,0,0-8.51-114.65"/><path class="cls-11" d="M2908.84,1259.64a848.58,848.58,0,0,1,14,98.14c2.25,32.83,3.08,66-3.05,98.08l5-2.8c-16.93-6.89-33.8-14-50-22.59s-32.14-17.73-47.66-27.58-30.86-20-45.76-30.85c-15-10.69-29.8-21.75-44-33.58a638.49,638.49,0,0,0,86.42,69.59c15.29,10.52,31.41,19.76,47.68,28.7a434.05,434.05,0,0,0,50.66,23.35l4.25,1.62.75-4.43c5.65-33.3,5.08-67,1.28-100a597.8,597.8,0,0,0-19.6-97.61"/><path class="cls-11" d="M2813.35,1173a275.83,275.83,0,0,1,13.4,52.79c2.3,17.87,2.95,36-1,53.29l3.63-2.86c-11.15-.5-22.42-2.9-33.56-5.71a319.34,319.34,0,0,1-32.94-10.7c-21.89-7.74-43.26-17.08-64.69-26.47a435.94,435.94,0,0,0,62.36,32.46,313.82,313.82,0,0,0,33.38,11.7c11.38,3.25,23.07,6,35.32,6h3.06l.57-2.87a136.77,136.77,0,0,0-.84-55.82,192.47,192.47,0,0,0-18.67-51.87"/><path class="cls-11" d="M3498.47,2062.23a66,66,0,0,0,7-11.92c1.82-3.67,3.05-7.27,4.56-10.92a171.65,171.65,0,0,0,6-21.8c3.23-14.54,4.5-29,5.19-43.43a450.29,450.29,0,0,0-5.75-84.92c-8.55-55.71-24.52-109.32-43.2-161.54-19-52-38.88-104-67.49-152.47-14.14-24.15-30.47-46.78-45.47-69.36a415.06,415.06,0,0,1-38.46-71.13,1163.9,1163.9,0,0,0-68.45-150.63c-26.23-48.56-55.18-95.67-87.63-140.28s-68.31-86.85-109.33-123.73c-40.92-36.58-87.86-68.09-140.73-83.63,52.51,16.73,98.39,49.12,138.24,86.36,39.91,37.55,74.53,80.37,105.79,125.31s58.9,92.42,83.84,141.16A1117.75,1117.75,0,0,1,3307,1440.38a432.19,432.19,0,0,0,37.77,74.85c14.74,23.63,30,46.08,43,69.8,26,47.18,44.4,98.92,62.16,150.44,17.26,51.6,31.69,104.31,38.71,157.63a423.65,423.65,0,0,1,3.77,79.58c-.89,13-2.33,26-5.34,38.3a144.22,144.22,0,0,1-5.27,17.84c-1.21,2.67-2.25,5.58-3.54,8a50.26,50.26,0,0,1-3.36,5.86Z"/><path class="cls-11" d="M3482.46,1444q-7.23,64.5-16,128.73c-3.24,21.35-6.15,42.74-10,63.93-4.07,21-8.16,42.56-16.06,61.76l5.31-1.76c-30.73-16.63-61.16-33.78-91.66-50.86L3308.4,1620c-15.23-8.57-30.42-17.22-45.25-26.5,28.29,20.65,57.94,39.35,87.88,57.49s60.43,35.3,90.94,52.46l3.77,2.1,1.54-3.88c8.35-20.95,12-42.34,16-63.73,3.57-21.4,6.65-42.86,9-64.41q7.29-64.56,10.22-129.46"/><path class="cls-11" d="M3388.91,1310.88c1.88,38.24,1.77,76.53.52,114.68-1.64,38.13-4.37,76.24-11.06,113.69l4.86-2.9c-40.92-14-81.39-29.64-120.6-48-19.68-9-39.09-18.66-57.79-29.53-18.54-10.92-37.7-22-51.56-38.9,12.86,17.78,31.49,30.26,49.52,42.26,18.48,11.61,37.7,22,57.18,31.75s39.5,18.41,59.67,26.67,40.49,16.1,61.22,22.85l4.18,1.36.68-4.26a735.9,735.9,0,0,0,9.29-114.88,926.25,926.25,0,0,0-6.11-114.8"/><path class="cls-11" d="M3282.94,1186.43a847.9,847.9,0,0,1,11.93,98.43c1.56,32.86,1.72,66.06-5.08,98l5-2.7c-16.76-7.25-33.48-14.71-49.51-23.64s-31.74-18.41-47.06-28.57-30.45-20.66-45.11-31.82c-14.78-11-29.34-22.35-43.26-34.51a637.82,637.82,0,0,0,84.94,71.42c15.05,10.83,31,20.41,47.07,29.69a431.51,431.51,0,0,0,50.15,24.41l4.22,1.71.84-4.42c6.36-33.15,6.5-66.86,3.37-100a598.59,598.59,0,0,0-17.54-98"/><path class="cls-11" d="M3189.29,1097.82a276.5,276.5,0,0,1,12.29,53.06c1.93,17.91,2.2,36.06-2.13,53.23l3.67-2.77c-11.13-.73-22.35-3.37-33.41-6.41a327.8,327.8,0,0,1-32.74-11.38c-21.7-8.2-42.88-18-64.1-27.84a436.46,436.46,0,0,0,61.66,33.77,312.61,312.61,0,0,0,33.13,12.4c11.31,3.49,23,6.43,35.19,6.79l3.05.08.64-2.86a137.06,137.06,0,0,0,.33-55.82,192.56,192.56,0,0,0-17.58-52.25"/><path class="cls-11" d="M3264.6,1976s-166.39-125-192-21.49,176.64,303.74,460.51,308.46S3783,2425.08,3783,2425.08s119.38-116.75-47.58-351S3337.28,1858,3264.6,1976"/><path class="cls-13" d="M3262.55,1984c3.47-1.3,10.84-2.08,16.82-1.55a112.26,112.26,0,0,1,19.16,2.89,216.59,216.59,0,0,1,37.63,13.58c24.54,11.33,47.64,26.25,69.76,42.41,11.27,7.81,21.69,16.71,32.72,25.08a303.57,303.57,0,0,0,34.77,23.91c24.26,14.22,50.24,24.94,76.56,33.8,52.31,18,107.54,28.94,153.32,60.07a195.83,195.83,0,0,1,56.73,59c14.73,23.35,25.41,49.18,33.29,75.72-7.26-26.73-17.36-52.84-31.64-76.75a199.38,199.38,0,0,0-56.19-61.13c-45.94-32.78-101.67-45.18-152.95-64.18-25.83-9.38-51-20.47-74.17-34.79-23.22-14-43.09-33.06-65.58-50-22.15-17-45.4-32.79-70.85-45.26a229,229,0,0,0-39.94-15.41,125.57,125.57,0,0,0-21.69-3.76c-7.73-.44-14.52-.86-24.15,2.46Z"/><path class="cls-13" d="M3761.74,2142c-11.14-4.06-22.91-6-34.65-7.63a312.42,312.42,0,0,0-35.53-1.9c-23.77.09-47.43,3.1-70.77,7.39l-5.25,1,2.7,4.66c12.36,21.35,24,43.08,35.42,65s22.4,44,32.74,66.52c-7.31-23.73-17.05-46.62-27.36-69.18-10.52-22.48-22.07-44.46-34.22-66.1l-2.55,5.63c11.46-2.3,23-4.36,34.56-5.84s23.23-2.47,34.89-3.24c23.31-1.12,46.89-.89,70,3.75"/><path class="cls-13" d="M3667,2032.42a869.08,869.08,0,0,0-107.14,9.09,522.33,522.33,0,0,0-52.93,10.62c-17.42,4.6-35,9.56-51.13,18.94l-2.37,1.38.58,2.6c3.27,15,6.91,29.84,11.31,44.51,4.57,14.62,9.48,29.17,15.91,43.1,6.27,14,13.09,27.73,21.49,40.56,8.53,12.66,17.85,25,29.49,34.87-10.85-10.68-19.1-23.57-26.55-36.66a320.93,320.93,0,0,1-19.32-40.92c-5.6-14-10.09-28.46-14.49-42.88-4.15-14.52-7.54-29.25-10.56-44.07l-1.79,4c15.16-8.32,32.18-13.86,49.23-18.5s34.6-8.22,52.15-11.39c35.07-6.43,70.53-11.26,106.12-15.22"/><path class="cls-13" d="M3507.17,1924.4c-15.21.5-30.11,4.58-44.85,8.32a407.49,407.49,0,0,0-43.35,14.77c-28.54,11.06-55.47,26-81.17,42.64l-1.08.69-.39,1.24c-5.47,17.37-9.88,35.14-11.93,53.26a269.38,269.38,0,0,0-1.68,54.52c2.81,36.22,12.26,72.19,30.15,103.55-7.83-16.22-13-33.5-16.91-50.95a268.48,268.48,0,0,1-7-53c-.58-17.77-.29-35.63,2.54-53.21,2.14-17.67,7-34.82,11.89-51.89l-1.47,1.93c24.95-17,51.67-31.24,79.19-43.72,13.76-6.27,27.91-11.64,42.22-16.6,14.29-4.79,28.78-10,43.84-11.59"/><path class="cls-13" d="M3282.19,1969.19a209.51,209.51,0,0,0-43.35,27.13,169.29,169.29,0,0,0-34.61,37.32,113.63,113.63,0,0,0-17.78,47.37c-3,16.9.69,33.87,4.69,50.06-3.39-16.38-6.35-33.3-2.79-49.77a110.79,110.79,0,0,1,19-45.49,164.57,164.57,0,0,1,35-34.94,204.29,204.29,0,0,1,42.7-24.57Z"/><path class="cls-12" d="M2981.76,2556.74c-36.2-22-72.8-43.57-111.06-62.09-19.1-9.29-38.45-18.16-58.5-25.66-20.15-7.71-41.13-12.36-62-16.49a494.43,494.43,0,0,0-63.62-7.67c-21.28-1.31-42.36-1.73-63-4.25a382,382,0,0,1-61.19-12.54c-20.68-6.15-42.15-9.39-63.31-11.66-85-8.06-170.47-4-254.34,9.83-41.86,7.16-83.48,16.61-123.55,30.88s-78.88,32.7-112.51,58.66c34.56-24.68,73.86-41.43,114-54.19a811.3,811.3,0,0,1,123.3-27.62c41.71-6.11,83.8-9.36,125.91-10.82s84.33-.49,126.06,4c20.86,2.41,41.44,5.64,61.33,11.73a342.32,342.32,0,0,0,63.07,12.81c21.38,2.4,42.7,2.63,63.67,3.75a483.32,483.32,0,0,1,62.42,6.94c20.62,3.92,41.15,8.39,60.88,15s39.34,14.81,58.6,23.41c38.39,17.52,76.63,35.82,113.91,55.95"/><path class="cls-12" d="M2674.54,2365.56a489.15,489.15,0,0,1,43.63,22.61,467.86,467.86,0,0,1,41.38,26.2c26.22,19,51.82,40.65,66.81,69.12l1.12-4.33c-13.91,9.1-27.89,18.09-42.3,26.38S2756,2521.4,2741,2528.49a307.72,307.72,0,0,1-46.46,17.53c-15.84,4.38-32.52,8.2-49.06,5.45,16.39,3.86,33.55,1.12,49.86-2.28a305.73,305.73,0,0,0,47.73-16c15.53-6.43,30.4-14.25,45.08-22.36s28.86-17.06,43-26.1l2.56-1.66-1.44-2.69c-8.05-14.93-18.91-28-30.92-39.41a269.19,269.19,0,0,0-38.92-30.84,438.7,438.7,0,0,0-87.9-44.59"/><path class="cls-12" d="M2554.92,2359.28c24.09,11.33,46.48,25.76,67.83,41.39,21.1,16,41.34,33.12,59.72,52.17l.45-5c-13.27,9-26.69,17.76-40.72,25.47a407.44,407.44,0,0,1-43.49,20.37c-29.73,11.7-61.16,20.29-93.46,21.24,32.4,2,64.79-5.44,95.34-16.23,30.58-11.16,59.43-26.83,86.09-45.48l3.21-2.25-2.76-2.74c-19-18.87-39.39-36.52-61.53-51.57s-45.55-28.42-70.68-37.39"/><path class="cls-12" d="M2323,2330.85a692.28,692.28,0,0,1,80,38.4c25.44,14.82,50.4,31.17,70.18,52.68l.69-5q-37.41,23.07-76.1,44.08c-25.67,14.2-51.7,27.79-77.89,41.18,27.39-10.75,54.06-23.25,80.36-36.46q39.34-20.07,77.07-43.21l3.46-2.12-2.76-2.89c-21-22-46.26-38.73-72.64-52.59a490.68,490.68,0,0,0-82.42-34.05"/><path class="cls-12" d="M2151.54,2381.85a654.08,654.08,0,0,1,74.57,12.72,292.64,292.64,0,0,1,35.85,11c11.44,4.56,22.93,10.26,30.64,19.09l-.09-4.09c-8.43,9.68-19.34,17.89-30.3,25.6S2239.65,2461,2228,2467.9c-23.15,14.06-46.91,27.18-70.69,40.35a766.24,766.24,0,0,0,73.47-35.52q17.8-10,35-21.35c11.33-7.68,22.6-15.7,31.78-26.83l1.71-2.1-1.8-2c-9.31-10.23-21.47-15.75-33.39-20.38s-24.47-7.64-36.95-10.12a440.09,440.09,0,0,0-75.57-8.11"/><path class="cls-11" d="M4321.68,1128.28s79.68,708.1-118.61,1137.81c52.34,19.82,83.9,12.6,83.9,12.6s206.3-850.86,34.71-1150.41"/><path class="cls-11" d="M4603.18,1530.16s-242.52,483.9-276.7,738.93c-48.24,89.84-87.65-13.16-87.65-13.16s126.94-505.15,364.35-725.77"/><path class="cls-12" d="M4574.85,1720.05s-165.12,408.55-180.14,618.64c-33.12,76-68-5.85-68-5.85s75.27-419.45,248.13-612.79"/><path class="cls-11" d="M4522.45,2273.28s210.17-183.94,340.77-203.15c35.09-27.74,4.52-30.39,4.52-30.39s-297.6,100.91-393.24,236c9.46,40.25,47.95-2.51,47.95-2.51"/><path class="cls-12" d="M4572.82,2036.64s-119,93.58-159.92,299.5c-46.57,3-48.92-29.57-48.92-29.57s143.87-332.11,289.6-323.06c-50.08,24.3-80.76,53.13-80.76,53.13"/><path class="cls-11" d="M4271.78,2176.74S4287.55,1967.9,4134,1794.6c-75.68-85.45-47.85-137.82-116.18-168s-162.9-106.39-186.76-138.76-430.51-194.42-544.27-171.65c116.37,48.46,206.83,240.46,266.62,253.87s127.21,95,204.49,168.6,150.21,46.37,202.13,82.95,240.52,177.92,311.72,355.13"/><path class="cls-13" d="M4189.5,1995.39c-21.18-38-44.17-74.92-67.81-111.23-12-18-24.45-35.79-38.11-52.34-13.67-16.29-29.17-31.53-45-46a521.87,521.87,0,0,0-50.65-39.92c-17.67-12.44-36-24.64-52.73-39-16.92-14-32.08-30.81-46.16-46.81-14.52-15.3-31.36-28.89-48.57-41.8-69.64-51.08-145.14-94.38-219.74-138.61l-225.22-130.87c76.36,41.35,153.28,81.64,229,124.16s151.45,85.39,222.32,136.66c17.56,13,34.8,26.65,50.31,42.79,14.79,16.45,29,31.87,45.31,45.9,16.08,14.07,33.88,26.19,51.59,38.89a529.68,529.68,0,0,1,51.27,41.14c16,15,31.74,30.19,45.26,47.83,13.45,17.43,25.4,35.73,36.87,54.29,23.05,37.06,42.83,75.94,62,115"/><path class="cls-14" d="M4032.85,1668.54a441.37,441.37,0,0,1,50.23,85,269.43,269.43,0,0,1,16.3,47c4,16.15,6.17,33,5,49.91l-.22,3h-3.05c-16.76,0-33.49-.2-50.23-1.16s-33.47-2.51-50-5.44a306.9,306.9,0,0,1-48.81-12.25c-15.59-6-31.51-12.89-43.27-25,12.48,11.24,28.59,17,44.29,21.84a307.8,307.8,0,0,0,48.57,10.28c16.44,2.09,32.95,3.7,49.54,4.46s33.18.72,49.79.55l-3.26,3c2.61-32.07-7.34-64.2-19.32-94.31a462.2,462.2,0,0,0-20.86-44.4,490.76,490.76,0,0,0-24.67-42.6"/><path class="cls-13" d="M3935.34,1598.74c16.39,21.13,28.92,45.07,39.57,69.64s18.31,50.5,24.26,76.68l.86,3.79-3.91.16c-32.47,1.37-65.19-1-97-8-31.55-7.37-62.86-18.56-89.09-37.74,27.74,16.64,58.84,26.33,90.18,32.5a411.72,411.72,0,0,0,47.57,6.27c16,1,32,.87,48,.47l-3.06,4c-5.29-26-13.16-51.34-22.41-76.2-9.63-24.7-20.78-48.94-35-71.49"/><path class="cls-13" d="M3755,1449.73a492.52,492.52,0,0,1,51.25,73.15c14.83,25.92,27.15,53.67,33.1,83.52l.78,3.92-4.06-.06q-44.17-.77-88.14-5.13c-29.26-3-58.44-6.87-87.3-12.59,29.26,2.81,58.49,5.4,87.75,7.28q43.85,3.18,87.79,3.85l-3.27,3.86c-5.17-28.8-17.45-56-31-82.25a692.37,692.37,0,0,0-46.93-75.55"/><path class="cls-13" d="M3583.09,1400.27a442.25,442.25,0,0,1,59.38,47.59,222.43,222.43,0,0,1,25.73,28.46c7.58,10.33,14.87,21.54,17.25,35.19l.45,2.65-2.57.84c-13.7,4.45-27.5,5.12-41.18,5.49s-27.32-.08-40.91-.83a772.9,772.9,0,0,1-81-9.66c27.1,1.71,54.17,3.45,81.22,4.09,13.51.41,27,.58,40.47.1s27-1.64,39.26-5.26l-2.1,3.49c-1.79-11.6-8.43-22.6-15.62-32.62a295.26,295.26,0,0,0-24.34-28.6,661.31,661.31,0,0,0-56.07-50.93"/><path class="cls-15" d="M4365,1193.09s-31.39-292.56-214.88-364.4-233-154.55-348-211.67-245.84,20.64-245.84,20.64,144.29,23.89,268.51,145.49S4181.43,1129,4365,1193.09"/><path class="cls-11" d="M4365,1193.09s-62.11-196.54-245.61-268.38S3908.06,739.47,3793,682.33s-236.76-44.67-236.76-44.67,144.29,23.89,268.51,145.49S4181.43,1129,4365,1193.09"/><path class="cls-15" d="M4431.21,2026.69s79.71-382.31,254.76-433.13,186.81-206.66,374.81-263,346.91-170.85,566.68-113.64c-209.69,36.58-278.8,121.76-379,221s-206.12,137.46-248.52,175.67-174.07,167.57-245.46,180.31-270.36,143.53-323.24,232.83"/><path class="cls-11" d="M4431.21,2026.69s121.07-322.24,296.11-373,175.85-205.5,363.85-261.83,316.52-232.09,536.29-174.88c-209.69,36.58-278.8,121.76-379,221s-206.12,137.46-248.52,175.67-174.07,167.57-245.46,180.31-270.36,143.53-323.24,232.83"/><path class="cls-15" d="M4190.4,2008.06s-127.71-231.32-317.68-237.54-167.85,119.1-341.86,42.75-485.44,58.44-532,193.14c178.49-101.61,294-106.4,530.57-35.45s522.43-10.45,661,37.1"/><path class="cls-11" d="M4190.4,2008.06s-134.3-136.6-324.26-142.82-164.74,76.73-338.74.39-482,6.08-528.56,140.79c178.49-101.62,294-106.41,530.57-35.46s522.43-10.45,661,37.1"/><path class="cls-12" d="M4203.07,2266.09s69.22-191.52-122.28-334.83c93.32,10.13,182.74,142,188.4,315.64.33,79.65-66.12,19.19-66.12,19.19"/><path class="cls-15" d="M4260.18,1540.46s-119-208.28-21.51-477.06,113.45-257.5,205.61-372.08,167.2-262.72,320.25-253,145-84.5,281.48,6.85c-77.07-16-239,33.84-255.48,144.29S4730,773,4680.67,815.38s-50.14,158.53-107.1,229.68-163.92,277.61-221.94,333.67-64.46,187.93-62.69,198.16-28.76-36.43-28.76-36.43"/><path class="cls-15" d="M4226.28,1619.74s-50.59-370.94-245.53-484.36-213.08-80.7-358.58-111.41-332.86,12-424.58,64.66c225.57-32.54,434.64,104.6,564.79,208.55s463.9,322.56,463.9,322.56"/><path class="cls-11" d="M4226.28,1619.74S4106,1361,3911,1247.59s-167.1-177.39-312.6-208.1-309.11-3.5-400.83,49.14c225.57-32.54,434.64,104.6,564.79,208.55s463.9,322.56,463.9,322.56"/><path class="cls-11" d="M4277.13,1586.65a66.3,66.3,0,0,1-7-11.92c-1.82-3.67-3.05-7.28-4.56-10.92a175,175,0,0,1-6-21.8c-3.23-14.55-4.5-29-5.19-43.44a450.4,450.4,0,0,1,5.75-84.92c8.55-55.7,24.52-109.31,43.2-161.54,19-52,38.88-104,67.5-152.47,14.13-24.14,30.46-46.77,45.46-69.35a415.8,415.8,0,0,0,38.47-71.13,1161.88,1161.88,0,0,1,68.44-150.63c26.23-48.56,55.18-95.67,87.63-140.28s68.31-86.85,109.33-123.73c40.92-36.59,87.86-68.09,140.73-83.63-52.51,16.73-98.39,49.12-138.24,86.36-39.91,37.55-74.53,80.37-105.79,125.3S4558,765,4533.05,813.71a1118.42,1118.42,0,0,0-64.41,151.09,432.2,432.2,0,0,1-37.77,74.85c-14.74,23.63-30,46.08-43,69.79-26,47.19-44.39,98.92-62.16,150.45-17.26,51.6-31.68,104.31-38.71,157.63a423.65,423.65,0,0,0-3.77,79.58c.89,13,2.33,26,5.34,38.3a144.22,144.22,0,0,0,5.27,17.84c1.21,2.67,2.25,5.57,3.54,8a52.76,52.76,0,0,0,3.36,5.86Z"/><path class="cls-11" d="M4293.14,968.44q7.24,64.5,16,128.73c3.24,21.34,6.15,42.73,10.05,63.93,4.06,21,8.15,42.56,16.05,61.76l-5.31-1.76c30.73-16.63,61.16-33.78,91.66-50.87l45.58-25.86c15.23-8.57,30.43-17.22,45.25-26.51-28.29,20.65-57.94,39.36-87.88,57.49s-60.43,35.3-90.94,52.47l-3.77,2.1-1.54-3.88c-8.35-21-12-42.34-16-63.73-3.57-21.4-6.65-42.86-9-64.42q-7.29-64.56-10.22-129.45"/><path class="cls-11" d="M4386.69,835.3c-1.88,38.24-1.77,76.53-.51,114.68,1.63,38.13,4.37,76.23,11,113.69l-4.86-2.9c40.92-14,81.39-29.64,120.6-48,19.68-9,39.09-18.65,57.79-29.53,18.54-10.91,37.7-22,51.56-38.9-12.86,17.78-31.49,30.27-49.52,42.27-18.48,11.61-37.7,22-57.18,31.75s-39.5,18.41-59.67,26.67-40.49,16.1-61.22,22.85l-4.18,1.36-.68-4.27a735.68,735.68,0,0,1-9.29-114.87,926.25,926.25,0,0,1,6.11-114.8"/><path class="cls-11" d="M4492.66,710.85a849.91,849.91,0,0,0-11.93,98.42c-1.56,32.87-1.72,66.07,5.09,98l-5-2.7c16.76-7.25,33.48-14.71,49.51-23.64s31.75-18.41,47.06-28.57,30.45-20.66,45.11-31.82c14.78-11,29.35-22.36,43.27-34.51a637.72,637.72,0,0,1-84.95,71.41c-15.05,10.84-31,20.42-47.07,29.7a431.45,431.45,0,0,1-50.15,24.4l-4.22,1.71-.84-4.41c-6.36-33.15-6.5-66.86-3.36-100a597.51,597.51,0,0,1,17.53-98"/><path class="cls-11" d="M4511,1500.38s166.4-125.06,192-21.5-176.65,303.75-460.52,308.46-249.9,162.15-249.9,162.15-119.38-116.74,47.58-351,398.17-216.06,470.85-98.09"/><path class="cls-13" d="M4513.05,1508.45c-3.46-1.3-10.84-2.08-16.82-1.55a112.26,112.26,0,0,0-19.16,2.89,216.2,216.2,0,0,0-37.62,13.58c-24.55,11.33-47.65,26.25-69.77,42.41-11.27,7.81-21.69,16.71-32.72,25.07a302.78,302.78,0,0,1-34.77,23.92c-24.26,14.22-50.24,24.93-76.55,33.8-52.32,18-107.55,28.93-153.33,60.07a195.91,195.91,0,0,0-56.73,59c-14.73,23.36-25.41,49.18-33.29,75.73,7.26-26.73,17.36-52.85,31.65-76.75a199.35,199.35,0,0,1,56.18-61.13c45.94-32.79,101.67-45.18,152.95-64.18,25.83-9.39,51-20.47,74.17-34.79,23.22-14,43.09-33.06,65.58-50,22.15-17,45.4-32.79,70.85-45.26a228.16,228.16,0,0,1,39.94-15.41,124.57,124.57,0,0,1,21.7-3.76c7.73-.44,14.51-.87,24.14,2.46Z"/><path class="cls-13" d="M4013.87,1666.4c11.13-4.06,22.9-6,34.64-7.62a314.81,314.81,0,0,1,35.54-1.91c23.76.1,47.42,3.1,70.76,7.4l5.25,1-2.7,4.66c-12.36,21.35-24,43.08-35.42,65s-22.39,44-32.74,66.51c7.31-23.72,17.06-46.61,27.36-69.17,10.52-22.48,22.07-44.46,34.22-66.11l2.55,5.64c-11.46-2.3-23-4.37-34.56-5.84s-23.22-2.47-34.89-3.24c-23.3-1.12-46.89-.89-70,3.74"/><path class="cls-13" d="M4108.59,1556.84a869.07,869.07,0,0,1,107.14,9.08,525.09,525.09,0,0,1,52.93,10.62c17.42,4.61,35,9.56,51.13,18.94l2.37,1.38-.57,2.6c-3.28,15-6.92,29.84-11.32,44.51-4.57,14.63-9.48,29.18-15.91,43.11-6.26,14-13.09,27.73-21.49,40.56-8.53,12.66-17.85,25-29.49,34.86,10.85-10.67,19.1-23.56,26.55-36.66a318.81,318.81,0,0,0,19.32-40.91c5.6-14,10.1-28.46,14.49-42.88,4.15-14.53,7.54-29.25,10.56-44.07l1.79,4c-15.15-8.32-32.18-13.86-49.23-18.5s-34.6-8.23-52.15-11.39c-35.07-6.43-70.53-11.26-106.12-15.22"/><path class="cls-13" d="M4268.43,1448.82c15.21.5,30.11,4.58,44.85,8.32a407.49,407.49,0,0,1,43.35,14.77c28.54,11.06,55.47,26,81.17,42.63l1.08.69.39,1.24c5.47,17.38,9.88,35.15,11.93,53.27a269.36,269.36,0,0,1,1.68,54.52c-2.81,36.22-12.26,72.19-30.15,103.55,7.83-16.22,13-33.51,16.91-51a269,269,0,0,0,7-52.95c.57-17.78.28-35.64-2.55-53.21-2.14-17.67-7-34.82-11.88-51.89l1.46,1.93c-25-17-51.67-31.25-79.19-43.72-13.76-6.28-27.91-11.65-42.22-16.61-14.29-4.78-28.78-10-43.84-11.58"/><path class="cls-13" d="M4493.42,1493.6a210.16,210.16,0,0,1,43.34,27.14,169.29,169.29,0,0,1,34.61,37.32,113.58,113.58,0,0,1,17.78,47.37c3,16.89-.69,33.86-4.68,50.06,3.38-16.38,6.34-33.3,2.78-49.77a110.89,110.89,0,0,0-19-45.5,164.7,164.7,0,0,0-35-34.93,204.61,204.61,0,0,0-42.71-24.57Z"/><path class="cls-15" d="M4464,2126.83s52-111.76,153.68-38.91,83.52,342.44-133.37,509.13c6.23-100.9-1.44-153-71.41-260.91s-29.21-203.65,51.1-209.31"/><path class="cls-11" d="M4466.78,2120.74a164.13,164.13,0,0,1,52.67,35.29c14.9,15.09,26.57,33.89,31.94,54.66s4.71,42.61-.1,63.06a208.21,208.21,0,0,0-6.37,60.41c1.24,40.69,14.42,81.33,9.87,123.15-2.08,20.76-9.32,40.74-19.82,58.53-10.69,17.73-24.09,33.59-38.77,48,14.36-14.74,27.34-30.88,37.53-48.71,10-17.89,16.64-37.69,18.22-58.09,3.57-41.05-10.44-81-12.74-122.58a214.45,214.45,0,0,1,5.11-62.28c4.3-19.65,4.58-40.19-.79-59.34-10.63-38.64-44.06-67.84-80.23-82.49Z"/><path class="cls-11" d="M4594.25,2481.39c-3.93-14.21-10.8-27.27-18.42-39.66a263.74,263.74,0,0,0-26.36-34.79l3.91-.31c-19,29.36-39.41,58-63.67,83.29q31.19-42.15,59.52-86l1.81-2.78,2.1,2.48c9.68,11.24,18.72,23.14,25.85,36.19s13.16,26.86,15.26,41.54"/><path class="cls-11" d="M4632.43,2389.22c-13-18.13-26.53-35.79-40.91-52.67-7.26-8.38-14.58-16.69-22.55-24.3s-16.32-14.92-25.79-19.84l2.8-.34c-8,7-15.85,14.21-23.4,21.74s-14.71,15.41-21.56,23.54a239.68,239.68,0,0,0-19.16,25.55c-5.85,8.88-11.31,18.18-14.7,28.37,2.61-10.45,7.4-20.24,12.62-29.66A234.31,234.31,0,0,1,4498,2334.9c13.28-17,28.6-32.32,44.64-46.65l1.29-1.16,1.54.81c10.32,5.43,18.7,13.16,26.73,21a268.3,268.3,0,0,1,22.35,25.12,479,479,0,0,1,37.87,55.2"/><path class="cls-11" d="M4639.85,2270.86c-5.52-7.74-13-13.85-20.23-20-7.38-6-14.85-11.83-22.77-17.05a299.82,299.82,0,0,0-49.82-26.91l1.55.11c-24.15,7-47.6,17-68.52,31.15a221.09,221.09,0,0,0-30,23.18c-9.37,8.5-18.36,17.59-25.91,27.87,13.73-21.58,32.53-39.78,53.46-54.63a222.55,222.55,0,0,1,33.45-19.1c11.58-5.68,23.86-9.66,36.24-13.14l.79-.24.76.34a253.8,253.8,0,0,1,50,28.51,218.22,218.22,0,0,1,22.17,18.3c6.79,6.7,13.87,13.39,18.83,21.57"/><path class="cls-11" d="M4651.41,2162.32c-17.16-20.92-43.18-32.67-69.21-36.5-26.32-4.11-53.27.18-78.49,8.2a131,131,0,0,0-35.78,16.79,136.11,136.11,0,0,0-30.25,25.51c-17.7,19.63-30.78,44-36.25,70.37,3.11-26.84,15.12-52.67,32.93-73.32a141.36,141.36,0,0,1,30.84-26.79c11.3-7.84,24.12-13,37.08-17,25.81-8.1,53.56-12.11,80.45-7,26.67,4.41,52.55,18.07,68.68,39.75"/><path class="cls-16" d="M2196.1,1545.41c-3.53-6-18.41,3.3-23.11,4.87-13,4.33-33,6.31-43.09,17.09-7.39,7.88,3.45,38,13.28,42.16,60,25.1,147.72,37.57,213.2,37.57,12.59,0,64.17-10.87,67.3,8.39,1,6.57.16,11.72-7.95,11.31-11.56-.59-20.48-11.56-33.32-10.24-24.93,2.61-48.83,14.3-73.94,17.56-5.11.66-47,2.86-36.3,19.17,10.46,15.89,32.45,15,48.82,16.49,44.69,4,97.05,9.84,141.65,2.58,11.93-1.95,48.29-5,49.2-6.73,16.12-31.54-7.83-77.59-33-95.88-29.28-21.21-63-35.12-94.51-52.59-45.35-25.13-92.73-56.65-146.63-51.27"/><path class="cls-17" d="M1949.55,1541.2a1.19,1.19,0,0,1-.25-1.38,1.21,1.21,0,0,1,1.19-.69c11.46,1.13,47.66,4.61,47.66,4.61l105.44,28.12,208.73,60s27.25,32.26,8.89,68.33-51.17,23.25-51.17,23.25l-189.43-92.62-95.05-55S1958.07,1549.43,1949.55,1541.2Z"/><path class="cls-18" d="M1953.65,1545.16a3.19,3.19,0,0,1,2.54-5.47l42,4,105.44,28.12,208.73,60s27.25,32.26,8.89,68.33-51.17,23.25-51.17,23.25l-189.43-92.62-95.05-55S1964.68,1555.78,1953.65,1545.16Z"/><path class="cls-19" d="M1953,1544.21c.76.73,1.54,1.48,2.38,2.2,21.68,19.29,56,25.61,81.8,37.64s53,20.17,80.08,29.09c31.72,10.46,61.76,25.77,91.85,40,17.1,8.07,35,15.2,50.8,25.63,17.19,11.38,28.9,26.86,40.33,43.3-15.31,7.19-30.19,1.38-30.19,1.38l-189.43-92.62-95.05-55s-20.88-20.07-31.91-30.69A2.9,2.9,0,0,1,1953,1544.21Z"/><ellipse class="cls-20" cx="2289.62" cy="1676.87" rx="39.39" ry="51.1"/><path class="cls-21" d="M2292.81,1727.78a25.89,25.89,0,0,1-3.16.19c-21.77,0-39.4-22.9-39.4-51.11s17.63-51.09,39.4-51.09a33.78,33.78,0,0,1,3.91.22c-20.26,2.11-36.23,24.13-36.23,51C2257.33,1703.44,2272.89,1725.24,2292.81,1727.78Z"/><path class="cls-22" d="M3302.11,2081.91c-9.4-10.17-556.59-204-556.59-204s-34.45-121.67-42.9-139.14c-18.95-39.11-42-76.69-62.89-114.83-18.07-33-30.15-70.25-56.08-98.62-14.57-15.89-43.28-8.32-61.73-11.53-10-1.76-19.29-6.37-29.06-9.11s-18.45-8.76-28.22-11.69c-33.29-10-67.89-17.15-101.49-26.7-18.1-5.18-39.46-18.06-58.82-15.83-37,4.21-71.08,28.93-105.09,42.1-9.34,3.61-20.95,2.67-30.66,5.24-27.78,7.42-60.88,13.54-89.51,15.8-8.8.7-32.85-1-38.92,6.63-20.73,26.08,25.33,52.53,43.28,56.4,51.48,11.06,106-1.45,157,10.43,26.11,6.09,49.51,23.15,67.86,41.91,21.23,21.64,37.05,43.92,48.41,72.38,3,7.48,9.18,26.14,1.69,32.83-12.36,11.09-38,10.78-53.17,12.38-18.2,1.92-39.3,6.16-57.22.41-13.46-4.3-21.7-15.93-32-24.85-26.34-22.75-43.41-56.24-71.69-77-12-8.82-69.55-24.06-66.86,6.51,4.58,51.52,46.1,95.06,73.16,135.59,37.52,56.18,86.84,96.92,138.73,139,61.41,49.83,124.83,98.27,194.38,136.35,42.53,23.28,122.73,68.36,122.73,68.36s600.65,368.87,615.15,350.4"/><path class="cls-23" d="M2137.37,1768.4c54.18,39.38,110.34,77.14,166.41,112.94,42.94,27.43,88.14,70.51,139.1,81.38,46.65,10,91.28-6.66,136.69,17.57,18.39,9.81,21.67,35.76,38.72,48.26,76.08,55.74,160.79,101.07,243,146.81,110.12,61.29,249.86,93.15,369.9,130.57,7.74,2.41,15.92,4.61,24.36,6.77l-34,168.63c-14.51,18.45-615.17-350.41-615.17-350.41s-80.18-45.08-122.7-68.36c-69.55-38.07-133-86.51-194.39-136.35-51.89-42.11-101.23-82.85-138.74-139C2146.45,1781,2142,1774.75,2137.37,1768.4Z"/><path class="cls-23" d="M2042.43,1551.69c1.26.63,2.51,1.23,3.7,1.82,41.71,20.68,98.08,11.22,142.3,6.07,6.73-.79,22.67-2.23,28.53-6.25,4.45-3-2-15.59,5.89-15.71,13.56-.22,9,27,18.66,32.67,31.63,18.66,78.58,31.61,103.16,60.76,15.13,18,25.3,41.82,37.89,61.48,9.27,14.55,18,31.2,29.88,43.92,1.72,1.83,10.71,12,9.49,14.68-5.73,12.56-30.07-4.84-38.43-4-17.38,1.76-42.18,18.25-62.66,22.08-23.21,4.31-46.76,18.1-70.78,13.48-36.92-7.1-50-40.46-76.28-61.67-30.23-24.38-63.36-42.6-95.55-62.74-.35-2.2-.6-4.43-.82-6.69-2.69-30.57,54.87-15.33,66.86-6.51,28.28,20.8,45.35,54.29,71.69,77,10.3,8.92,18.54,20.55,32,24.85,17.92,5.75,39,1.51,57.22-.41,15.16-1.6,40.81-1.29,53.17-12.38,7.49-6.69,1.29-25.35-1.69-32.83-11.36-28.46-27.18-50.74-48.41-72.38-18.35-18.76-41.75-35.82-67.86-41.91-51-11.88-105.48.63-157-10.43C2073.06,1574.41,2053.27,1564.6,2042.43,1551.69Z"/><path class="cls-17" d="M3308.82,1595.12c-17,95.12-65,177.08-91.9,269.15-22.3,76.41-148.83,656.08-115.49,710.42C3131,2622.81,3391.5,2608,3444.48,2608c84.73,0,175.15-8.79,259.45,1.11,43.67,5.14,84.26,25,127.62,31.63,149.4,22.86,310.38,10.54,459.82-3.25,59.26-5.48,237.33,16.22,275.33-29.4,43.51-52.23,93.14-335.54,102-404.44,24.06-186.56,69.41-506.51-94.91-649.5-61.51-53.51-140.56-70.29-217.61-88.15-120.81-28-250.16-47.66-374-38"/><path class="cls-24" d="M3659.41,2605.53c77.67-75.36,132.81-169.61,156-281.84,9.63-46.61,9.5-104.76,23.46-149.28,1.17-3.73,5.45,36.86,5,66.89-.76,47.52-10,95-13.33,142.41-1.1,15.59-2.19,31.21-3.61,46.76-.9,9.9-11.21,36.59-4.2,29.55,28.61-28.85,105.47-237.2,122.51-243.59,5.84-2.19,13.51,27.86,14,30.4,5.12,26.81-21.25,144.81,16.65,148.72,68,7,167.39-32.22,230.94-55.41a570.27,570.27,0,0,0,59.54-25.1c6.54-3.24,13-6.66,19.62-9.75,3.68-1.71,14-8,10.92-5.33-25.13,22.09-203.72,143.46-202.42,152.49,3.61,24.6,51.73,47.41,70.22,58.66,131.46,79.94,289.71,56.81,433.53,26.26-10.43,32.7-21.16,58.3-31.53,70.76-38,45.62-216.07,23.92-275.33,29.4-149.44,13.79-310.42,26.11-459.82,3.25-43.36-6.63-84-26.49-127.62-31.63C3689.26,2607.43,3674.4,2606.27,3659.41,2605.53Z"/><path class="cls-24" d="M3326.29,1753.4c109.73,133.2,251.23,211.37,417.86,253.6,43.35,11,96,24.21,129.37,56.41,9.47,9.14,18.3,20.33,23.59,32.46,3.41,7.81,6.58,32.13,8.92,23.94,2.06-7.19,2.93-44.83,9-42.95,31,9.68,143.78,129.12,149,127.79,28.83-7.33-39.21-95.28,18.54-118.86,95.64-39.07,208.15-38.16,306.74-70.83,8.3-2.75,5.77-18.94,5.1-24.83-7.26-63.69,211.54-81.16,269.64-156.57,74.38-96.55-94.24-319.31-199.7-338.8"/><path class="cls-24" d="M4008.9,2379.13c18.29-27.05,52.76-47.66,79.89-64.59,76.85-48,8.23,39.62-51.05,57"/><path class="cls-24" d="M3754.14,2052.45c3,83.54-1.25,162.36-8.13,245.42-2.38,28.64-5.4,57.26-7.61,85.9-.81,10.63-5.29,41.81-1.3,31.94,30.71-76.22,109-240.46,66-331.22-11.48-24.24-36.3-37.63-54.5-56"/><path class="cls-25" d="M2622.25,93c-6.52,104.06-53.92,202-58.57,306.47-6.17,139,65.9,234.27,192.11,286,31.66,13,105.23,47.74,139.64,18.64,40.5-34.26,48.24-238.75,48.88-289.64.76-60.26.3-178.92-54.56-218"/><path class="cls-18" d="M3052.49,1203.16c27.49,118.85,27,241.12,9.55,362-4.87,33.73-11.72,67.66-26.62,98.51-6.87,14.22-13.75,28.4-20.27,42.8-1.37,3-7.46,7.41-4.48,8.84,18.77,9,46.39-30.56,53.68-44.45.71-1.37,1.08-5.17,2.2-4.08,2.52,2.45,2.11,23,2.4,23,7.86,1.08,19.13-18,22.65-23.39,1.91-2.94,3.24-12,7.42-12.12,11.87-.3,14.26,17.55,23.88,22.33,30,14.9,68.59,2.1,98.95-4.08,161.75-32.89,299.83-94.19,282.08-284-5.35-57.2-33.47-103.65-45.9-157.82-7.31-31.89-4-67.74-4.07-100.24-.12-96.36,16.28-194,19.73-290.56,3.51-97.72-10.61-195.54-21.55-292.33"/><path class="cls-22" d="M2662.58,253.11c-15.87,84.31,15.8,350.63,43.86,411.11,18.18,39.2,50.1,70,65.67,110.66,30.33,79.21,34.91,166.07,68.53,244.25,28.22,65.67,71.25,119.63,109.65,179.18,48.49,75.19,104.44,236.55,222.25,213.32,18.56-3.67,41.84-10.8,53.94-26.55,39-50.8-12.93-307-18.31-369.09-9.16-105.88-34.8-201.4-63.42-303.11-50.25-178.54-121.64-260.19-260.68-373.78"/><path class="cls-23" d="M2789.83,351.59c18.47,75.42,26.7,150.42,42.72,226.24,14.46,68.49,33.86,136.42,45.16,205.5,7.25,44.34-11.88,89.95-5.21,135.17,13.83,93.85,93.1,266.33,145,344.83,28.75,43.5,161.8,300,226,217.11,42.76-55.2,55.52-223.8,54.68-291.69-.84-67.36-.38-135-5.67-202.22-12-152.14-37.31-313.59-86.64-458.47-37.1-109-175.15-302.94-311.67-293.91-31.27,2.07-60,24.28-87.92,37.35"/><path class="cls-26" d="M2642.22.86c-48.48,60.38-46.71,158.4-25.46,229.89,42.94,144.44,105.7,278.84,279.42,253.16,27.31-4,56.62-12.47,79.53,7.67,49.7,43.64,53,141.28,59.77,203,10.84,98.62,3.26,197.46,9.92,296.18,11,163,41.28,319.4,87.95,476,67.44,226.27,205.13,429.41,439.65,498.14,60.55,17.76,113.67,8.84,175.46,27.29,35.09,10.49,287.77,36.86,306.05,1.45,4.21-8.17-9.74-16.06-.21-25.81,16.51-16.92,136.28-59.87,138.33-67.43,1.28-4.69-69.13-58.46-55.17-68.29,29.85-21,107.49,81.88,113.32,81,25.65-4,8.65-34.66,27.25-39.62,13.57-3.62,52.89,15.24,61.12,8.49,15.9-13.07,8.37-35.51,28.16-44.7,170.31-79.15,222.58-47.93,270.9-263,20.24-90.08,39.21-181.5,36.32-274.49C4658.38,778.79,4288.45,738,4084,354.62c-25-46.94-27.29-100.71-53.76-146.55C3878.27-55,3799.4-108.36,3491.46-91.25c-123.33,6.85-246.59,11.19-369.88,19"/><path class="cls-25" d="M2648.86,330c38.82,28.66,76.47,58.73,119.63,81.73,156.05,83.16,299.74,67.64,426.59,225.72,137.69,171.58,156.75,404.7,237.36,603.06,69,169.86,164.74,377.19,320.21,485.29,47.93,33.31,99.2,63.18,153.63,84.45.65.26,16.3,5.7,16.49,5.19C3926,1807,3814.6,1681.33,3786.94,1653c-134.06-137.15-216.43-318.88-288.36-494.73-37.22-91-74.78-177.95-91.27-275.71a383.93,383.93,0,0,1-4.76-52.44c-.14-4.39-4.46-14.5-.3-13.17,5.14,1.63,48.22,117,53.92,131.55,47.84,122.26,110.55,255.81,185.47,363.92a1745.71,1745.71,0,0,0,108.77,140.68c16.79,19.68,32.61,40.45,51.73,58,2.7,2.45,8.56,11,8.08,7.38-9.6-71.44-77.36-129.94-92.86-201.25-.13-.64-4.93-22.44-4.84-22.5,2.93-1.67,4.23,5.27,6.38,7.87,42.21,51,68.44,111.37,107.79,164.35,109.22,147,180.31,200.35,358.76,249.94,11,3,52.15,23.34,63.38,18.12,21.43-10-52.2-117-64.9-138.48-.22-.39-5.11-8.39-5.08-8.39,25.22-8.42,167,104.22,112.55,12.68-6.15-10.35-13.86-19.45-20.74-29.3-35.25-50.29-74.31-96.14-106.59-148.43-14.84-24.06-29-48.42-43.56-72.62-1-1.73-4.82-6.38-3.29-5.06,34.93,29.8,59.2,75.44,92.95,107.76,57.31,54.87,244.89,181.36,327.95,124.07,76.51-52.77,97.9-165.42,125.59-247.26q5.91-17.43,11.63-35c.25,5.07.43,10.12.59,15.23,2.89,93-16.08,184.42-36.32,274.5-48.32,215-100.59,183.81-270.9,263-19.8,9.2-12.27,31.63-28.17,44.71-8.22,6.75-47.55-12.11-61.12-8.49-18.59,5-1.59,35.64-27.24,39.62-5.83.9-83.47-102-113.32-81-14,9.83,56.45,63.61,55.17,68.3-2.06,7.55-121.82,50.51-138.33,67.42-9.53,9.76,4.41,17.64.21,25.81-18.28,35.42-271,9.05-306.06-1.44-61.78-18.46-114.9-9.53-175.45-27.29-234.52-68.74-372.21-271.88-439.66-498.15-46.66-156.58-77-313-87.94-476-6.66-98.72.92-197.56-9.92-296.18-6.76-61.67-10.07-159.32-59.77-203-22.92-20.14-52.22-11.7-79.53-7.66C2760.54,514.69,2692.54,435.33,2648.86,330Z"/><path class="cls-25" d="M3977.61,1162.94c-41.3-36.36-61.47-89.09-102.39-125.65-49.19-43.94-113.3-72.95-168.71-108.17-47-29.9-88.86-65.9-134.22-97.87-49.27-34.74-100.61-65.89-150.8-99.23-21.6-14.34-44.56-28.14-64.46-44.83-3.16-2.65-11.75-5.52-8.94-8.55,23.17-25.08,149.38,6.45,182.26,8.49,96.53,6,599.75,45.23,647.48,122.47,30.13,48.78-170.19,84.36-200.24,130-64.59,98.15,24.92,231.8,68.59,319.15"/><path class="cls-25" d="M2693.06,302.07c128,98.54,283.72,144.81,429.93,212,49.6,22.79,87.72,48,126.77,85.87,11.64,11.3,21.65,25.48,31.39,38.44,4,5.28,15.87,26.46,15.61,24.4-6.14-50.84-56.82-131.11-98.61-159.66-69.31-47.33-170.51-76.28-249.55-102.51-43.92-14.57-82.29-43.64-123.68-63.69s-87.62-26.22-129-46.89"/><path class="cls-25" d="M3168.78,417.77c40.44,47.27,80.81,84.55,115.23,138.35,16.15,25.24,31.28,52,50.85,74.76,1,1.19,2.54,5,3.1,3.53,18.89-49.23-109.75-178.74-149.5-206.4"/><path class="cls-22" d="M2872.11,557.26c-16-45.92-47.3-205.08,27.61-210.83,28.94-2.22,54.46,32.81,67.47,54.63,12.7,21.3,24.3,43.82,35.2,66.09,42.14,86.07,23.52,162.79,20.23,254.53-.59,16.18,2.73,102.12-37.81,80.55-47.39-25.21-13.06-172.63-33.64-222.42-18.17-44-50.76,33.23-73-2.46"/><path class="cls-23" d="M2900,553.83c2.44-45.34,38.37-95.68,72.66-37.62,30.2,51.08,40.58,106.41,42,164.59.34,13.48,1.92,63.54-9.74,70.46-11,6.49-18.06-20.62-19.69-26.65-8.43-31.24.51-65.09-4.4-96.83-3.59-23.25-14-76.16-47.46-73.18-10.84,1-17.06,22.84-27.35,15.73"/><path class="cls-18" d="M678.15,1069.53c26.06-7.92,54.07-10.69,80.94-14.45,73.21-10.18,146.79-17,219.95-27.35,25.74-3.63,57.13-5.58,81.87-13.77a6.55,6.55,0,0,0-4.09-12.45c-24,8-54.58,9.71-79.6,13.23-73.15,10.32-146.73,17.17-219.93,27.36-27.53,3.83-56.22,6.76-82.93,14.87a6.56,6.56,0,0,0,3.79,12.56Z"/><path class="cls-18" d="M839.52,1641.9c78.78-22.69,158.18-39.34,238.07-57.9,55.21-12.83,111.75-32.39,169.05-32.4a6.56,6.56,0,0,0,0-13.12c-58.28,0-115.84,19.68-172,32.73-80.12,18.62-159.74,35.33-238.73,58.09a6.55,6.55,0,0,0,3.61,12.6Z"/><path class="cls-18" d="M940.72,2119.8c15.06,2.1,31.6-4,46.11-7,34.81-7,68.65-15,103-24.21,62.51-16.8,125.86-27,188.78-41.54,21.86-5.06,44.35-9.21,65.87-15.6,4-1.18,10.76-4,17.21-5.73,3.14-.83,6.14-1.53,8.38-1a6.56,6.56,0,0,0,3.19-12.72c-3.94-1-9.32-.47-14.88,1-6.6,1.72-13.56,4.65-17.61,5.85-21.27,6.32-43.5,10.39-65.11,15.4-63.07,14.59-126.56,24.81-189.22,41.65-34,9.15-67.62,17.05-102.15,24-13.17,2.65-28.09,8.71-41.75,6.81a6.56,6.56,0,0,0-1.79,13Z"/><path class="cls-18" d="M568.68,631c3.85.59,7.82,1.61,9.58,1.79,18.22,1.83,36.56,2.37,54.89,3.6,65.7,4.38,134,.95,199.65-2.43,56.09-2.89,112-.29,168.05-2.09,14.59-.46,29.65-.79,44.24-.06a57.24,57.24,0,0,1,7.62.68c1.38.26,2.87.3,3.57,1.21a6.55,6.55,0,1,0,10.31-8.07,17,17,0,0,0-9.21-5.53,58.46,58.46,0,0,0-11.64-1.39c-14.94-.75-30.37-.43-45.31.05-56.15,1.81-112.12-.8-168.3,2.1C767,624.16,699.22,627.6,634,623.25c-18.18-1.21-36.38-1.74-54.45-3.56-2.43-.25-9-2.05-13.76-2.2-4.08-.12-7.31,1.06-9.1,2.71a6.89,6.89,0,0,0-2.19,4.46c-.21,1.92,1.36,8.94,1.52,9.7,1.64,8,2.72,16.26,4,24.3,5.74,34.82,10,78,22.61,110.83a6.54,6.54,0,1,0,12.2-4.7c-12.26-32.07-16.3-74.26-21.91-108.27-1.35-8.21-2.46-16.69-4.14-24.82Z"/><path class="cls-27" d="M355.31,1140.51a6.59,6.59,0,0,0-2.67-8c-33.6-20.79-72.51-22.21-110.8-13.75-37.27,8.23-73.93,25.8-104.15,43.12-15.32,8.77-37.71,24.53-50.62,43.36-9.45,13.78-13.89,29.17-8.59,44.82,4.63,13.68,16.1,22.42,30.31,27.65,19.12,7,43.23,7.66,58.39,7.74,66.92.33,135.68-26.42,188.81-67.11,21.31-16.31,27.57-32.05,25.58-45.3-1.87-12.53-11.36-23.61-25.07-31.88C356.11,1141,355.71,1140.73,355.31,1140.51Zm-70.2-13.44a179.64,179.64,0,0,0-40.46,4.56c-36,7.93-71.32,25-100.48,41.68-14,8-34.55,22.23-46.33,39.41-7,10.24-10.92,21.55-7,33.17,3.35,9.92,12.12,15.76,22.43,19.55,17.65,6.49,40,6.86,54,6.94,64.1.32,129.91-25.43,180.81-64.41,15.91-12.18,22.06-23,20.58-32.94-1.36-9.09-8.92-16.58-18.87-22.57-16.69-10-40.35-15.53-59.5-14.37a6.55,6.55,0,0,1-5.16-11Z"/><path class="cls-27" d="M268.59,1207.28c.67-.89,3.6-4.66,6.66-8,20-22,70.73-70.14,75.77-74.83,56.91-52.88,113.61-105.69,172.7-156.13C549,946.72,577,912.65,609.3,900.83a6.55,6.55,0,0,0-4.48-12.32c-33.65,12.31-63.22,47.31-89.57,69.8C456,1008.87,399.18,1061.79,342.14,1114.8c-5.1,4.75-56.33,53.42-76.54,75.61-4.55,5-7.62,8.86-8.68,10.84a8.58,8.58,0,0,0-1.12,4.3,6.54,6.54,0,0,0,12.79,1.73Z"/><path class="cls-27" d="M206.65,672.25c-56.79-5.79-119,22.61-160.52,58.37-8.41,7.25-24.74,21.94-33.94,37.44C5,780.11,2.31,792.7,7.85,803.38s17.89,16.45,32.62,18.78c19.17,3,42.21.51,53.76-.21,64.74-4.05,154.71-35.1,195.59-89.36,6.74-9,8.48-17,7.17-23.84-1.87-9.9-10.6-18.21-23.56-24C254.94,676.35,227.78,672.56,206.65,672.25Zm-28.86,12.87c-45.07,4-90.8,27.56-123.14,55.44-7.7,6.65-22.79,20-31.23,34.22-4.61,7.75-7.53,15.68-4,22.55,3.79,7.32,12.91,10.27,23.06,11.87,18.14,2.86,40,.34,50.9-.34,61.47-3.84,147.17-32.67,186-84.18,3.87-5.14,5.51-9.53,4.76-13.49-1.21-6.37-7.73-10.77-16.08-14.53-9.52-4.3-21.57-7.3-33.71-9.15a6.51,6.51,0,0,1-6.94,2.13,122.23,122.23,0,0,0-23-4.48c-8.41,0-15.54.66-20.13,1.88A6.51,6.51,0,0,1,177.79,685.12Z"/><path class="cls-27" d="M284.68,721.94c26.55-1.08,53.23-4.13,79.77-4.4a6.56,6.56,0,0,0-.14-13.12c-26.66.28-53.48,3.33-80.16,4.41a6.56,6.56,0,0,0,.53,13.11Z"/><path class="cls-27" d="M189.32,435a6.42,6.42,0,0,0-1.82-.39c-53.42-3.7-100.62,7.28-143.5,43.24C27,492.05,21.86,505.59,23.28,517c1.36,10.92,8.86,20.57,20,28,15,9.95,36.64,15.9,55.26,16.24,57.16,1,120.33-19.72,165.9-54.85,10.56-8.15,14.08-16.37,13.74-23.75s-4.76-14.49-12.08-20.68c-18.22-15.41-55.15-25.75-67-26.53C195.8,435.18,192.55,435,189.32,435Zm-52.47,14.36c-30.22,4.63-58.22,16.54-84.47,38.55-12.22,10.26-17.15,19.31-16.12,27.54.92,7.44,6.62,13.59,14.23,18.63,13.1,8.69,32,13.77,48.29,14.07,54.33,1,114.38-18.75,157.69-52.14,5.93-4.57,8.84-8.59,8.65-12.73s-3.32-7.78-7.45-11.27c-16.15-13.66-48.92-22.78-59.46-23.47-19.71-1.3-38.54,0-58.19,1.4A6.37,6.37,0,0,1,136.85,449.31Z"/><path class="cls-27" d="M262.59,486.65c31.26-1.7,63.16,3.9,94.62,2.87,34.21-1.11,68.05-4.93,102.34-4.93a6.56,6.56,0,0,0,0-13.12c-34.43,0-68.41,3.82-102.77,4.94-31.55,1-63.55-4.57-94.9-2.85a6.55,6.55,0,0,0,.71,13.09Z"/><path class="cls-27" d="M719.27,2257.13c-73,8.29-142.89,30.65-208,69.44a268.63,268.63,0,0,0-34.83,24.62c-30.06,25.15-39.91,46.12-38.13,62.53,1.74,16,14.35,28.91,33.29,38.41,25.55,12.8,62.74,19.81,94.36,23a479.31,479.31,0,0,0,76,1.79c43.8-2.65,117.93-18.93,179.59-46.92,41.92-19,78-43.6,95.69-72.62,24.51-40.24-4.12-80.49-41.74-97.32C828.17,2238.87,769.36,2245.27,719.27,2257.13Zm89,2.08a7.92,7.92,0,0,1,.07,1.1,6.55,6.55,0,0,1-6.7,6.4,587.33,587.33,0,0,0-80.28,3.4c-5.67,1.36-11.22,2.79-16.61,4.24a6.49,6.49,0,0,1-5.83-1.25c-63.3,9.8-124,30.81-180.92,64.75a253.55,253.55,0,0,0-33.13,23.41c-13.09,10.95-22,20.81-27.46,29.77-4.8,7.93-6.73,14.95-6,21.27,1.31,12.09,11.83,20.93,26.13,28.09,24.31,12.18,59.73,18.66,89.81,21.66a463.83,463.83,0,0,0,73.88,1.75c42.68-2.58,114.91-18.5,175-45.77,39.24-17.81,73.37-40.35,89.92-67.51,20-32.81-5.23-64.79-35.91-78.49C851,2263.45,829.89,2259.75,808.26,2259.21Z"/><path class="cls-27" d="M902.64,2305.2c.47-1.36,1.85-2.15,3.43-2.93a39.15,39.15,0,0,1,10.36-3c13.88-2.47,31.34-2,38.54-3.47,51.87-10.34,101.82-26,152.36-40.78a6.56,6.56,0,0,0-3.65-12.6c-50.17,14.65-99.76,30.26-151.26,40.51-8.47,1.69-31,.86-45.51,5.08-8.56,2.5-14.56,7-16.62,12.9a6.54,6.54,0,1,0,12.35,4.32Z"/><path class="cls-27" d="M803.53,361.19c-76.74,6.74-148.9,29.64-199.73,91.12-24.79,30-33.1,62.43-25.45,88.62,7.74,26.53,31.75,47.39,73.21,53,21.49,2.9,46.43,2.2,67.16,2.66,34.33.75,69.58-3.63,103.53-8.51,28.58-4.1,55.31-9.8,82.53-19.23,24-8.32,57.7-22.06,82.62-39.31,20.24-14,34.53-30.66,35.67-48.17s-10.42-37.25-45.23-56.61C959,414.26,940,404.63,919.22,398.57c-68.85-20.07-139.45-11.35-206.65,8.6a6.56,6.56,0,0,0,3.71,12.58c64.81-19.24,132.88-27.95,199.29-8.58,19.83,5.78,37.92,15,55.93,25.05,14.78,8.23,24.93,16.26,31.18,24.19,5.47,6.91,7.77,13.6,7.35,20.1-.93,14.2-13.63,26.86-30,38.22-24,16.59-56.36,29.72-79.47,37.71-26.42,9.15-52.37,14.66-80.11,18.65-33.25,4.78-67.77,9.11-101.39,8.37-20.28-.44-44.68.3-65.7-2.54-34.95-4.72-55.89-21.32-62.42-43.68-6.62-22.7,1.48-50.56,23-76.56,48.5-58.66,117.59-80,190.81-86.42a6.56,6.56,0,0,0-1.14-13.07Z"/><path class="cls-20" d="M811.25,499.72c4.94,0,10-.18,15.21-.53a54.77,54.77,0,0,1,15.23,1.06,26.46,26.46,0,0,1,15.4,9.26,20,20,0,0,1,4.33,16.41,45.33,45.33,0,0,1-4.28,12.7A60,60,0,0,1,849.58,550a114.34,114.34,0,0,1-9.52,10.06q-5,4.77-9.83,9a7.7,7.7,0,0,1-7.48.93,17.27,17.27,0,0,1-6.82-4.11q-6.36-6.07.19-7.67a155.13,155.13,0,0,0,19.57-20A56.74,56.74,0,0,0,846.5,518c.13-1.23-1-2-3.33-2.38a43.89,43.89,0,0,0-8.63-.27c-3.39.18-7.07.44-11.06.8s-7.52.7-10.62,1.06a15.32,15.32,0,0,1-4,0,18.38,18.38,0,0,1-5-1.33,13.45,13.45,0,0,1-4.52-3,9.71,9.71,0,0,1-2.52-5.16q-3-20.91-4.28-41.55t-1.5-37.85c0-1.77.66-2.82,1.93-3.18a6.77,6.77,0,0,1,4.13.27,21,21,0,0,1,7.72,5.42q2.83,3.32,2.86,6.22c-.07,3.53-.05,7.24,0,11.12s.24,7.85.46,11.91q14-1.32,26.52-1.46a170.63,170.63,0,0,1,23,1.19c2.35.36,4.75.75,7.22,1.19a65.34,65.34,0,0,1,7.87,2,8,8,0,0,1,5.1,3.31c1.39,1.85,1.5,3.4.31,4.63a47,47,0,0,1-7,3,19.47,19.47,0,0,1-3.39.93q-32.22-1.59-58.62,2.65.6,6.08,1.09,11.77C810.74,493.06,811,496.54,811.25,499.72Zm-37.71,62.19a29.25,29.25,0,0,1-8.63-9.66c-2.1-3.79-3.25-6.3-3.49-7.54a330.66,330.66,0,0,1-11.79-83.37,94,94,0,0,1,1.07-10.06c.51-3,1.3-4.49,2.35-4.49a10.22,10.22,0,0,1,4.16,1,18.06,18.06,0,0,1,4.16,2.65,17.09,17.09,0,0,1,3.14,3.44,9.18,9.18,0,0,1,1.55,3.44,278.51,278.51,0,0,0,3.77,51.74q4.3,25.82,10.58,51.48c.33,1.76-.27,2.82-1.79,3.18a3.94,3.94,0,0,1-2.59-.4A24.59,24.59,0,0,1,773.54,561.91ZM723.1,486.48a68.88,68.88,0,0,1,.74,15,67.7,67.7,0,0,1-3.2,17.86A58.19,58.19,0,0,1,712,536.24a37.09,37.09,0,0,1-15.58,12.18,30.06,30.06,0,0,1-12.5,3A26.73,26.73,0,0,1,671.84,549a28.65,28.65,0,0,1-10-8.08A38,38,0,0,1,655,526.71a66.78,66.78,0,0,1-2.07-20.77,60.56,60.56,0,0,1,4.34-19.59,56.81,56.81,0,0,1,10.09-16.27,47.75,47.75,0,0,1,15.07-11.38,4,4,0,0,1,4.11.13c1.46.79,2.6,2.42,3.4,4.89q14,1.33,22.7,7.28T723.1,486.48Zm-50.27,39.7a11.54,11.54,0,0,0,3.08,5.3,9.71,9.71,0,0,0,4.07,2.11,11,11,0,0,0,4.66-.52,31.28,31.28,0,0,0,4.78-2,25.65,25.65,0,0,0,4.13-2.65,17.56,17.56,0,0,0,2.92-2.78,40.6,40.6,0,0,0,8.81-16.8A61.45,61.45,0,0,0,706.84,487c-.2-1.05-1.09-2.11-2.7-3.17a19.71,19.71,0,0,0-5.87-2.52,58.89,58.89,0,0,0-7.51-1.45,38.11,38.11,0,0,0-7.7-.27,87.83,87.83,0,0,0-5.86,9.8,54.07,54.07,0,0,0-4.29,11.24,53.32,53.32,0,0,0-1.67,12.44A47.37,47.37,0,0,0,672.83,526.18Z"/><path class="cls-20" d="M451.51,743.45a51.06,51.06,0,0,1-5.34,11.25,77.92,77.92,0,0,1-8.83,11.65,97.28,97.28,0,0,1-11.24,10.58A70.39,70.39,0,0,1,413.71,785a10.66,10.66,0,0,1-4.79,1.19,8.29,8.29,0,0,1-5-1.19,11.13,11.13,0,0,1-5-7.67,7.06,7.06,0,0,1,3-7.41,96,96,0,0,0,13.79-9,80.84,80.84,0,0,0,11.72-11,46.76,46.76,0,0,0,7.41-11.38q2.54-5.7,1.13-10.46a15.93,15.93,0,0,0-5.67-7.94,20.47,20.47,0,0,0-9.25-3.7,40.16,40.16,0,0,0-11.71.13,57.6,57.6,0,0,0-12.59,3.31,11.92,11.92,0,0,1-3.88.39,5.45,5.45,0,0,1-3.49-1.72,24.29,24.29,0,0,1-4.19-6.35q-1.54-3.44.39-5.82l8.6-6.35a64.36,64.36,0,0,0,8.41-7.41,28.47,28.47,0,0,0,5.69-8.6,13.88,13.88,0,0,0,.16-9.93,5.9,5.9,0,0,0-3.13-3.44A22.12,22.12,0,0,0,393,668.42a24.68,24.68,0,0,0-6.06,1.46,7.4,7.4,0,0,1-3.09,1.85,12.5,12.5,0,0,1-3.6.53,7.75,7.75,0,0,1-3.28-.66,5,5,0,0,1-2.16-1.72,9.76,9.76,0,0,1-1.63-3.84,5.19,5.19,0,0,1,.43-4.1q2.13-4.25,9.86-6.75T402.74,654q9.24,1.59,14.8,7.41a26.43,26.43,0,0,1,7,13.76,30.84,30.84,0,0,1-.64,13.1,36.06,36.06,0,0,1-6.67,13.37,26.73,26.73,0,0,1,13.53,1.85,31.94,31.94,0,0,1,10.85,7.41,39.75,39.75,0,0,1,9.44,15.61A27.09,27.09,0,0,1,451.51,743.45Zm66.13-61.13q5.46,11.11,3.56,20.9a96,96,0,0,1-3.41,11.65q-2.28,6.35-5.31,12.84T506,740.14q-3.41,6-6.23,10.72,4.67-.52,11.49-1.45t14.14-2c4.88-.7,9.69-1.37,14.41-2s9-1.11,12.79-1.46a24.36,24.36,0,0,1,6.83.53,42.42,42.42,0,0,1,5.39,1.32,2.77,2.77,0,0,1,1.69,2.78,10.46,10.46,0,0,1-1,4.11,15.94,15.94,0,0,1-2.33,3.83c-.93,1.15-1.76,1.72-2.45,1.72l-18.07,2.91-19.88,3.18q-10,1.59-19.62,3t-17.39,2.25q-3.6.54-6.74-2.91a19.92,19.92,0,0,1-4.34-7.14,13.82,13.82,0,0,1-.07-1.86q0-1.32,2.39-4.23a250.7,250.7,0,0,0,16.77-27.39,120.06,120.06,0,0,0,11.32-29.78,8.23,8.23,0,0,0-.22-4.1,4.35,4.35,0,0,0-1.52-2.51,6.62,6.62,0,0,0-3.51-1.19,27.23,27.23,0,0,0-4.6.13,36.6,36.6,0,0,0-7.4,1.32q-3.76,1.07-7.35,2.38a65,65,0,0,0-6.48,2.78L469,697.67a8.59,8.59,0,0,1-5,1.32,10,10,0,0,1-3.77-1.19,11.09,11.09,0,0,1-2.62-2,3.91,3.91,0,0,1-1.07-1.59,8.22,8.22,0,0,1-.37-3.44,25.77,25.77,0,0,1,.43-3.44,23.14,23.14,0,0,1,6.4-6.08,46.24,46.24,0,0,1,10.88-5.43,71.35,71.35,0,0,1,13.65-3.31,55,55,0,0,1,15.17,0,27.41,27.41,0,0,1,9,4A22.93,22.93,0,0,1,517.64,682.32Z"/><path class="cls-20" d="M672,731.17a216.8,216.8,0,0,1,11.66-36.52,271,271,0,0,1,18.41-35.73c1.33-1.41,3.54-2.6,6.61-3.58a11,11,0,0,1,8.38.4,4.77,4.77,0,0,0,.92.66,2,2,0,0,1,.65.66c.07-.52.16-1.49.26-2.91a10.24,10.24,0,0,1,2.75-5.16,5,5,0,0,1,5.06-1.19,11.83,11.83,0,0,1,9.63,10.85c-.29,10.06-.2,20.34.21,30.84s1.29,21.74,2.6,33.74q7.59-1.85,15.75-3.31t17.17-2.78a12.5,12.5,0,0,1,3.57,0,34.83,34.83,0,0,1,4.1.8,9.48,9.48,0,0,1,3.45,1.58,4.26,4.26,0,0,1,1.67,2.65c.45,2.47-.54,4.77-3,6.88a18.89,18.89,0,0,1-8.46,4.24q-8.16,1.59-16,3.44t-15.63,4q1.57,10,3.64,20.64t5,22.23c.57,2.12.21,3.8-1.05,5a5.51,5.51,0,0,1-4.6,1.59q-3.74-.27-6.84-4.23a25.65,25.65,0,0,1-4.44-8.47q-2.82-8.21-4.8-16.15T725,745.2q-7.28,2.12-14.82,4.1t-14.86,3.84a15.94,15.94,0,0,1-10-.53,19.56,19.56,0,0,1-7.45-5.43,24,24,0,0,1-4.48-7.94A23.26,23.26,0,0,1,672,731.17Zm164.25-6.35a42.61,42.61,0,0,1,17.94,9.39A27.51,27.51,0,0,1,863,750a22.27,22.27,0,0,1-3.09,16.28,41.14,41.14,0,0,1-12.22,12.57,45.31,45.31,0,0,1-6,3.31,61.27,61.27,0,0,1-9,3.44,63.37,63.37,0,0,1-10,2.12,19.45,19.45,0,0,1-9.41-.93,12.41,12.41,0,0,1-4.71-3.44,27.29,27.29,0,0,1-4.34-6.35,26.76,26.76,0,0,1-2.52-8.08,18.21,18.21,0,0,1,.89-8.86q3.33-10.59,7.69-21.44t9.18-22a55.24,55.24,0,0,1-10.12-7.8,49.05,49.05,0,0,1-8.25-10.46,45.45,45.45,0,0,1-5.06-12.57,37.79,37.79,0,0,1-.61-14.16q1.37-8.48,8.95-14.56t20-6.08a36.86,36.86,0,0,1,12.45,2.38,31.76,31.76,0,0,1,11.43,7,22.79,22.79,0,0,1,6.41,11.25c1.06,4.41.38,9.53-2.08,15.35q-4.59,9.53-9,18.93t-8.42,18.92Zm111.31-33.35q-2.43,22.75-4.11,45.39t-3.6,42.48a8.31,8.31,0,0,1-3.29,6.48q-3,2.25-5.85,1.19a6.52,6.52,0,0,1-2.81-2.38,21.53,21.53,0,0,1-2.52-4.36,30.51,30.51,0,0,1-1.76-5.3,35.4,35.4,0,0,1-.8-5.16q1.42-16.66,3.39-38.51T931,687.24q-6.22.53-13,1.19c-4.49.44-8.89.84-13.23,1.19s-8.4.7-12.21,1.06-7.07.7-9.83,1.06q-4.49,0-9.08-4.24t-5.41-8.73a2.22,2.22,0,0,1,.9-2.25,5.6,5.6,0,0,1,2.42-1.19q6.66-1.07,15.23-1.86T904.21,672q8.85-.66,17.32-1.19t15.08-.53a8.27,8.27,0,0,1,3.77,1.19,18.8,18.8,0,0,1,4.12,3,25.53,25.53,0,0,1,3.36,4,10,10,0,0,1,1.74,3.71ZM819.16,769.81a23.05,23.05,0,0,0,5.87-1.06,56,56,0,0,0,7.92-2.91,65.33,65.33,0,0,0,8.18-4.37,26.3,26.3,0,0,0,6.6-5.69q2.24-3.71-2.56-9a94.76,94.76,0,0,0-12.76-11.38,2,2,0,0,1-.76-.53,2.39,2.39,0,0,0-.49-.53,182.42,182.42,0,0,0-6.6,17.33Q821.7,760.55,819.16,769.81ZM718.3,665.27a7.91,7.91,0,0,1-.95,2,13.58,13.58,0,0,0-1,1.72,230.11,230.11,0,0,0-16.8,32.95A180.7,180.7,0,0,0,689,737.52l15.86-4.89q8.11-2.52,16.92-4.9A345.5,345.5,0,0,1,718.3,665.27Zm118,14.56q3.84-9.27-2.6-11.38a23.51,23.51,0,0,0-13.31.13q-6.36,2-8.66,9.66a18.92,18.92,0,0,0-.08,5.29,25.64,25.64,0,0,0,1.78,6.88,28,28,0,0,0,4.36,7.28,27.28,27.28,0,0,0,7.34,6.22q2.58-6.09,5.45-12T836.25,679.83Z"/><path class="cls-28" d="M802.73,923.68a69.4,69.4,0,0,1,.75,15,68.59,68.59,0,0,1-3.2,17.86,58.84,58.84,0,0,1-8.66,16.94A37.13,37.13,0,0,1,776,985.61a30.07,30.07,0,0,1-12.5,3,26.68,26.68,0,0,1-12.07-2.52,28.66,28.66,0,0,1-10.06-8.07,38.47,38.47,0,0,1-6.8-14.16,66.84,66.84,0,0,1-2.07-20.78,60.24,60.24,0,0,1,4.34-19.58A56.83,56.83,0,0,1,747,907.27,48.05,48.05,0,0,1,762,895.89a4.07,4.07,0,0,1,4.11.13c1.46.8,2.6,2.43,3.4,4.9q14,1.32,22.7,7.28T802.73,923.68Zm-50.27,39.7a11.36,11.36,0,0,0,3.07,5.29,9.8,9.8,0,0,0,4.09,2.12,10.79,10.79,0,0,0,4.64-.53,30.54,30.54,0,0,0,4.79-2,26.82,26.82,0,0,0,4.13-2.65,18.85,18.85,0,0,0,2.92-2.78,40.85,40.85,0,0,0,8.81-16.8,61.46,61.46,0,0,0,1.55-21.84c-.19-1.06-1.09-2.12-2.69-3.18a20.14,20.14,0,0,0-5.86-2.51,59.17,59.17,0,0,0-7.53-1.46,38,38,0,0,0-7.69-.26,86.22,86.22,0,0,0-5.87,9.79,54.7,54.7,0,0,0-4.28,11.25,53.86,53.86,0,0,0-1.68,12.44A47.81,47.81,0,0,0,752.46,963.38Z"/><path class="cls-20" d="M787.23,1219a217.45,217.45,0,0,1,11.67-36.52,270.39,270.39,0,0,1,18.41-35.73,15.46,15.46,0,0,1,6.61-3.58,11,11,0,0,1,8.38.4,5.12,5.12,0,0,0,.92.67,1.69,1.69,0,0,1,.63.65c.09-.52.18-1.5.28-2.91a10.22,10.22,0,0,1,2.74-5.16,5,5,0,0,1,5-1.19,11.85,11.85,0,0,1,9.65,10.85q-.44,15.09.21,30.84t2.6,33.73q7.56-1.85,15.75-3.3T887.3,1205a12.5,12.5,0,0,1,3.57,0,34.83,34.83,0,0,1,4.1.8,9.25,9.25,0,0,1,3.45,1.59,4.21,4.21,0,0,1,1.67,2.64c.45,2.47-.54,4.76-3,6.89a19,19,0,0,1-8.46,4.23q-8.16,1.58-16,3.44t-15.63,4q1.58,10.07,3.64,20.63t5,22.24c.57,2.12.21,3.79-1.06,5a5.54,5.54,0,0,1-4.59,1.59q-3.74-.27-6.84-4.24a25.51,25.51,0,0,1-4.44-8.46q-2.82-8.22-4.8-16.16t-3.73-16.13q-7.28,2.12-14.82,4.1T810.51,1241a15.87,15.87,0,0,1-10-.52,19.56,19.56,0,0,1-7.46-5.43,23.77,23.77,0,0,1-4.47-7.94A23.52,23.52,0,0,1,787.23,1219Zm164.26-6.36a42.73,42.73,0,0,1,17.94,9.4,27.49,27.49,0,0,1,8.81,15.74,22.29,22.29,0,0,1-3.1,16.29,41.1,41.1,0,0,1-12.21,12.57,45.1,45.1,0,0,1-6,3.3,58.57,58.57,0,0,1-9,3.44,63.62,63.62,0,0,1-10.05,2.12,19.52,19.52,0,0,1-9.39-.92,12.53,12.53,0,0,1-4.73-3.44,28.09,28.09,0,0,1-4.32-6.35,27.24,27.24,0,0,1-2.53-8.08,18.45,18.45,0,0,1,.89-8.86c2.23-7.07,4.79-14.2,7.7-21.44s6-14.56,9.18-22a56.11,56.11,0,0,1-10.14-7.81,49.48,49.48,0,0,1-8.23-10.44,45.33,45.33,0,0,1-5.06-12.58,37.84,37.84,0,0,1-.61-14.17c.91-5.64,3.88-10.49,9-14.55s11.73-6.08,20-6.08a36.91,36.91,0,0,1,12.45,2.38,31.51,31.51,0,0,1,11.43,7,22.68,22.68,0,0,1,6.41,11.23c1.06,4.43.38,9.53-2.08,15.35q-4.59,9.54-8.95,18.93t-8.42,18.92Zm-17.12,45a23.51,23.51,0,0,0,5.87-1.06,58.55,58.55,0,0,0,7.92-2.91,68.07,68.07,0,0,0,8.18-4.36,26.92,26.92,0,0,0,6.6-5.69q2.23-3.72-2.56-9a96.15,96.15,0,0,0-12.76-11.38,2,2,0,0,1-.76-.52,2.46,2.46,0,0,0-.5-.54,185.49,185.49,0,0,0-6.59,17.35Q936.91,1248.41,934.37,1257.68ZM833.51,1153.14a7.69,7.69,0,0,1-1,2,13.78,13.78,0,0,0-1,1.72,231.73,231.73,0,0,0-16.81,33,180.77,180.77,0,0,0-10.52,35.6l15.86-4.9q8.11-2.51,16.92-4.89A345.5,345.5,0,0,1,833.51,1153.14Zm118,14.56q3.84-9.27-2.61-11.38a23.3,23.3,0,0,0-13.3.13q-6.36,2-8.66,9.66a18.93,18.93,0,0,0-.08,5.29,25.64,25.64,0,0,0,1.78,6.88,28,28,0,0,0,4.36,7.28,27.18,27.18,0,0,0,7.33,6.21c1.72-4,3.54-8.07,5.46-12S949.55,1171.75,951.46,1167.7Z"/><path class="cls-28" d="M927,1495.05a51.66,51.66,0,0,1-5.33,11.25,79.94,79.94,0,0,1-8.83,11.64,97.47,97.47,0,0,1-11.26,10.58,72.07,72.07,0,0,1-12.37,8.08,11,11,0,0,1-4.8,1.19,8.42,8.42,0,0,1-5-1.19,11.16,11.16,0,0,1-5-7.69,7.06,7.06,0,0,1,3-7.4,96.13,96.13,0,0,0,13.8-9,80.16,80.16,0,0,0,11.71-11,46.3,46.3,0,0,0,7.42-11.39q2.5-5.67,1.12-10.44a15.83,15.83,0,0,0-5.67-7.94,20.38,20.38,0,0,0-9.24-3.71,40.23,40.23,0,0,0-11.72.13,57.42,57.42,0,0,0-12.59,3.3,12,12,0,0,1-3.88.41,5.55,5.55,0,0,1-3.49-1.72,24.13,24.13,0,0,1-4.18-6.36c-1-2.3-.91-4.23.37-5.82l8.61-6.35a64.28,64.28,0,0,0,8.41-7.41,28.13,28.13,0,0,0,5.68-8.6,13.75,13.75,0,0,0,.17-9.92,5.93,5.93,0,0,0-3.13-3.45,20.83,20.83,0,0,0-5.77-2,20.56,20.56,0,0,0-6.64-.26,24.22,24.22,0,0,0-6.07,1.45,7.43,7.43,0,0,1-3.1,1.85,12.06,12.06,0,0,1-3.59.54,7.83,7.83,0,0,1-3.29-.67,5.35,5.35,0,0,1-2.16-1.72,10.14,10.14,0,0,1-1.62-3.84,5.15,5.15,0,0,1,.44-4.1c1.42-2.83,4.7-5.07,9.84-6.76s11.58-2.07,19.31-1.18q9.27,1.58,14.81,7.41a26.45,26.45,0,0,1,7,13.76,30.68,30.68,0,0,1-.64,13.1,36.11,36.11,0,0,1-6.66,13.37,26.73,26.73,0,0,1,13.53,1.85,31.8,31.8,0,0,1,10.84,7.41,39.69,39.69,0,0,1,9.46,15.62A27.09,27.09,0,0,1,927,1495.05Zm66.14-61.14q5.46,11.11,3.55,20.91a93.76,93.76,0,0,1-3.42,11.64q-2.26,6.35-5.3,12.84t-6.44,12.44q-3.39,5.94-6.22,10.72,4.65-.54,11.47-1.46t14.15-2c4.89-.7,9.69-1.37,14.41-2s9-1.1,12.8-1.46a23.94,23.94,0,0,1,6.82.53,41.64,41.64,0,0,1,5.38,1.33,2.72,2.72,0,0,1,1.69,2.78,10.74,10.74,0,0,1-1,4.1,17.29,17.29,0,0,1-2.34,3.84c-.94,1.15-1.75,1.72-2.46,1.72l-18.07,2.91L998.3,1516q-10,1.59-19.62,3c-6.42,1-12.22,1.72-17.41,2.26q-3.59.52-6.72-2.92a19.46,19.46,0,0,1-4.34-7.15,10.51,10.51,0,0,1-.08-1.85c0-.87.81-2.29,2.4-4.23a253.2,253.2,0,0,0,16.76-27.39,119.52,119.52,0,0,0,11.32-29.78,8.23,8.23,0,0,0-.22-4.1,4.35,4.35,0,0,0-1.51-2.51,6.74,6.74,0,0,0-3.52-1.19,27.09,27.09,0,0,0-4.59.13,38,38,0,0,0-7.41,1.32q-3.76,1.07-7.35,2.38a61.73,61.73,0,0,0-6.48,2.79c-1.94,1-3.63,1.8-5.08,2.51a8.74,8.74,0,0,1-5,1.33,10,10,0,0,1-3.78-1.2,11.2,11.2,0,0,1-2.6-2,4.38,4.38,0,0,1-1.09-1.59,8.31,8.31,0,0,1-.36-3.45,24.41,24.41,0,0,1,.42-3.44,23,23,0,0,1,6.42-6.08,45.66,45.66,0,0,1,10.88-5.43,70.33,70.33,0,0,1,13.64-3.3,54.27,54.27,0,0,1,15.17,0,26.86,26.86,0,0,1,9,4A23.06,23.06,0,0,1,993.09,1433.91Z"/><path class="cls-20" d="M1138.66,1712.86q-2.45,22.76-4.13,45.38t-3.59,42.49a8.34,8.34,0,0,1-3.3,6.48q-3,2.25-5.84,1.19A6.62,6.62,0,0,1,1119,1806a22.48,22.48,0,0,1-2.5-4.36,27.24,27.24,0,0,1-1.76-5.3,34.16,34.16,0,0,1-.82-5.15q1.45-16.68,3.39-38.51t4.77-44.06q-6.24.52-13,1.18c-4.5.45-8.91.84-13.24,1.2s-8.4.7-12.21,1-7.08.71-9.83,1.06c-3,0-6-1.41-9.09-4.23s-4.86-5.74-5.41-8.74a2.21,2.21,0,0,1,.91-2.24,5.62,5.62,0,0,1,2.42-1.2q6.67-1.05,15.22-1.85t17.42-1.45q8.85-.66,17.32-1.2t15.08-.52a8.31,8.31,0,0,1,3.78,1.18,19.37,19.37,0,0,1,4.11,3.05,25.68,25.68,0,0,1,3.37,4,9.85,9.85,0,0,1,1.72,3.71Zm-106.07-52.14a111.33,111.33,0,0,0-6.34,13.77,156.89,156.89,0,0,0-6,19,224.81,224.81,0,0,0-4.47,22.49,145.92,145.92,0,0,0-1.62,23.69,113.74,113.74,0,0,0,2.58,22.76,60.3,60.3,0,0,0,8,19.72,1.56,1.56,0,0,0,1.51,1.06q3.93-1.59,7.39-6.49a41.36,41.36,0,0,0,5.49-11.12,50.59,50.59,0,0,0,2.43-12.69,24.52,24.52,0,0,0-1.48-11,5.85,5.85,0,0,0-4.16-3.31c-2.14-.61-4.31-1.23-6.55-1.85a25.37,25.37,0,0,1-5.68-2.25c-1.56-.89-2-2.38-1.35-4.5a12,12,0,0,1,1.59-1.45,12.24,12.24,0,0,1,3.12-1.73,17,17,0,0,1,4.55-1.06,22.45,22.45,0,0,1,5.84.28,18.17,18.17,0,0,1,7.71,3.16q3.92,2.65,6.34,8.74a46.93,46.93,0,0,1,3.94,17.21,49.88,49.88,0,0,1-2.24,16.67,51.81,51.81,0,0,1-7.34,14.68,43.19,43.19,0,0,1-11.19,11,11.2,11.2,0,0,1-6.25,1.85,25.61,25.61,0,0,1-13.89-7.41,47.4,47.4,0,0,1-9.17-13.36,70.05,70.05,0,0,1-5.14-15.88q-1.65-8.34-2.32-15a151.66,151.66,0,0,1,3.22-51,165.41,165.41,0,0,1,18.61-46.18,5.76,5.76,0,0,1,4.15-3.31,6.85,6.85,0,0,1,5,1.2,11.4,11.4,0,0,1,3.75,4.62A9.15,9.15,0,0,1,1032.59,1660.72Zm-60.37,134.71a29.57,29.57,0,0,1-8.63-9.66c-2.1-3.79-3.26-6.31-3.48-7.54a329.69,329.69,0,0,1-11.79-83.37,91.21,91.21,0,0,1,1.07-10.06c.51-3,1.29-4.49,2.34-4.49a10.22,10.22,0,0,1,4.16,1,18.34,18.34,0,0,1,4.17,2.65,17.06,17.06,0,0,1,3.13,3.44,9.45,9.45,0,0,1,1.56,3.44,277.59,277.59,0,0,0,3.77,51.74q4.31,25.8,10.58,51.48c.32,1.77-.27,2.82-1.8,3.18a3.88,3.88,0,0,1-2.57-.4A23.84,23.84,0,0,1,972.22,1795.43Z"/><path class="cls-28" d="M1083.45,1873.19a111.29,111.29,0,0,0-6.32,13.76,158.73,158.73,0,0,0-6,19.06q-2.67,10.58-4.47,22.5a145.53,145.53,0,0,0-1.6,23.68,113.1,113.1,0,0,0,2.56,22.76,60.65,60.65,0,0,0,8,19.72,1.57,1.57,0,0,0,1.51,1.06q3.95-1.59,7.4-6.48a40.9,40.9,0,0,0,5.48-11.12,50.76,50.76,0,0,0,2.44-12.71,24.45,24.45,0,0,0-1.48-11,5.85,5.85,0,0,0-4.16-3.31c-2.14-.62-4.32-1.25-6.54-1.86a25.75,25.75,0,0,1-5.69-2.25c-1.57-.88-2-2.39-1.34-4.5a11.11,11.11,0,0,1,1.58-1.46,12.13,12.13,0,0,1,3.11-1.71,16.43,16.43,0,0,1,4.56-1.06,22.46,22.46,0,0,1,5.85.26,18.41,18.41,0,0,1,7.7,3.18q3.91,2.64,6.34,8.73a46.71,46.71,0,0,1,3.93,17.2,50,50,0,0,1-2.22,16.68,52.42,52.42,0,0,1-7.35,14.69,43.79,43.79,0,0,1-11.19,11,11.13,11.13,0,0,1-6.25,1.86,25.91,25.91,0,0,1-13.89-7.41,47.88,47.88,0,0,1-9.17-13.37,70.47,70.47,0,0,1-5.14-15.89c-1.09-5.54-1.87-10.53-2.34-14.94a152.14,152.14,0,0,1,3.24-51,165.17,165.17,0,0,1,18.61-46.18,5.72,5.72,0,0,1,4.15-3.31,6.81,6.81,0,0,1,5,1.19,11.29,11.29,0,0,1,3.76,4.63A9.1,9.1,0,0,1,1083.45,1873.19Zm-60.36,134.72a29.46,29.46,0,0,1-8.62-9.67c-2.11-3.79-3.26-6.3-3.49-7.53a330.28,330.28,0,0,1-11.79-83.38,91,91,0,0,1,1.07-10c.51-3,1.29-4.51,2.34-4.51a10.08,10.08,0,0,1,4.15,1.07,18.16,18.16,0,0,1,4.18,2.64,17.33,17.33,0,0,1,3.13,3.44,9.11,9.11,0,0,1,1.55,3.44,279.54,279.54,0,0,0,3.77,51.75q4.32,25.8,10.59,51.47c.32,1.76-.27,2.82-1.8,3.17a3.8,3.8,0,0,1-2.57-.39A26.53,26.53,0,0,1,1023.09,2007.91Zm172-75.43a73,73,0,0,1-2.45,32.81,58.56,58.56,0,0,1-8.65,16.94,37,37,0,0,1-15.6,12.17,29.88,29.88,0,0,1-12.5,3,26.85,26.85,0,0,1-12.06-2.51,28.82,28.82,0,0,1-10-8.07,37.68,37.68,0,0,1-6.81-14.17,67.09,67.09,0,0,1-2.08-20.77,60.3,60.3,0,0,1,4.34-19.59,56.78,56.78,0,0,1,10.09-16.28,48,48,0,0,1,15.08-11.38,4.07,4.07,0,0,1,4.11.13c1.46.8,2.6,2.43,3.4,4.9q13.95,1.33,22.69,7.28T1195.05,1932.48Zm-50.27,39.7a11.64,11.64,0,0,0,3.07,5.29,10,10,0,0,0,4.09,2.12,10.71,10.71,0,0,0,4.65-.54,28.63,28.63,0,0,0,4.78-2,25.75,25.75,0,0,0,4.14-2.65,19.32,19.32,0,0,0,2.92-2.77,41,41,0,0,0,8.8-16.81,61.68,61.68,0,0,0,1.56-21.84c-.19-1-1.09-2.11-2.7-3.17a19.76,19.76,0,0,0-5.86-2.52,61.17,61.17,0,0,0-7.52-1.46,39.61,39.61,0,0,0-7.7-.26,85.5,85.5,0,0,0-5.87,9.8,54,54,0,0,0-6,23.68A47.5,47.5,0,0,0,1144.78,1972.18Z"/><path class="cls-20" d="M1329.28,2171.87q-2.44,22.76-4.11,45.39t-3.6,42.48a8.35,8.35,0,0,1-3.3,6.49c-2,1.49-4,1.89-5.85,1.18a6.64,6.64,0,0,1-2.81-2.38,22.81,22.81,0,0,1-2.51-4.37,29.32,29.32,0,0,1-1.76-5.29,34.28,34.28,0,0,1-.8-5.16q1.44-16.66,3.39-38.5t4.76-44.07c-4.17.35-8.49.75-13,1.18s-8.89.84-13.24,1.19-8.39.72-12.2,1.07-7.09.7-9.83,1.06c-3,0-6-1.41-9.08-4.24s-4.87-5.73-5.42-8.73a2.25,2.25,0,0,1,.91-2.26,5.77,5.77,0,0,1,2.42-1.19q6.66-1,15.22-1.84t17.41-1.47q8.85-.66,17.34-1.19t15.06-.52a8.31,8.31,0,0,1,3.79,1.18,20,20,0,0,1,4.11,3,24.64,24.64,0,0,1,3.36,4,10.1,10.1,0,0,1,1.74,3.71Z"/><path class="cls-20" d="M1983.33,1431.42q-3.12,29-5.25,57.87t-4.58,54.15a10.6,10.6,0,0,1-4.21,8.27c-2.56,1.91-5,2.42-7.45,1.52a8.53,8.53,0,0,1-3.59-3,29.11,29.11,0,0,1-3.21-5.57,37.61,37.61,0,0,1-2.23-6.75,44.72,44.72,0,0,1-1-6.58q1.85-21.25,4.33-49.1t6.06-56.18q-8,.68-16.53,1.52t-16.89,1.51c-5.52.47-10.7.9-15.56,1.35s-9,.9-12.54,1.36c-3.8,0-7.66-1.81-11.58-5.4s-6.2-7.31-6.9-11.13a2.83,2.83,0,0,1,1.16-2.87,7.24,7.24,0,0,1,3.09-1.53q8.49-1.33,19.41-2.36t22.19-1.84q11.29-.86,22.1-1.52t19.21-.68a10.47,10.47,0,0,1,4.82,1.52,23.69,23.69,0,0,1,5.24,3.88,31.87,31.87,0,0,1,4.29,5.06,12.82,12.82,0,0,1,2.21,4.73ZM1691,1534.34q-3.3-12.48-6.69-28.35t-6.45-32.56q-3-16.71-5.84-32.9t-4.51-29.35a4.72,4.72,0,0,1,2.24-5.23c1.9-1.24,3.55-1.74,4.93-1.52q6.18.67,9,4.21a28.36,28.36,0,0,1,4.68,10q1.64,10.79,3.44,21.6t4.1,21.59q14.64-2.7,23.36-11.14a36.1,36.1,0,0,0,11.87-29,47.38,47.38,0,0,0-2-11.64,40.66,40.66,0,0,0-5.22-11.13,24.94,24.94,0,0,0-9.07-8.26,38.9,38.9,0,0,0-17-4.73,49.76,49.76,0,0,0-17.52,2.52,54.81,54.81,0,0,0-16.53,8.95,72.36,72.36,0,0,0-14,14.51q1.93,5.07.28,8.94a10.18,10.18,0,0,1-5.71,5.57q-2.57.67-6.91-2.87c-2.91-2.36-4.57-4.77-5-7.25q-2.46-13.5,3.29-23.45a49.54,49.54,0,0,1,16-16.7A76.94,76.94,0,0,1,1674.4,1366a90.66,90.66,0,0,1,23.59-3.38,47.72,47.72,0,0,1,29.34,9.61,62.17,62.17,0,0,1,19.53,24.12q11.69,25.32,4.79,45.56t-28.08,35.1q19.47,10.79,36.56,20.57t34.64,21.26a48.55,48.55,0,0,1,5.63,5.9c2.15,2.6,2.58,6.47,1.29,11.65a6.36,6.36,0,0,1-6,5.23c-3.19.33-6.55-.62-10.11-2.87q-8.51-6.08-19-12.66t-21.74-13.15q-11.3-6.59-22.52-12.83t-21.31-11.63q2.81,13.5,5.4,26.81t5.61,26.17c.58,3.14.09,5.33-1.49,6.57a10,10,0,0,1-6.38,1.85,8,8,0,0,1-4.1-2.19,35.38,35.38,0,0,1-4-4.39,42.82,42.82,0,0,1-3.45-5.06A13.07,13.07,0,0,1,1691,1534.34Zm-146.23-76.93q9.42,0,19.38-.68a69.74,69.74,0,0,1,19.42,1.35,33.78,33.78,0,0,1,19.65,11.81,25.43,25.43,0,0,1,5.49,20.92,56.67,56.67,0,0,1-5.45,16.19,76.13,76.13,0,0,1-9.62,14.51,148.25,148.25,0,0,1-12.13,12.83q-6.45,6.06-12.53,11.47a9.82,9.82,0,0,1-9.54,1.17,21.9,21.9,0,0,1-8.7-5.22q-8.13-7.76.24-9.78a196.17,196.17,0,0,0,24.94-25.49q10.14-12.65,13.79-25.8.26-2.37-4.25-3a55.54,55.54,0,0,0-11-.34c-4.34.22-9,.57-14.11,1s-9.59.89-13.54,1.34a19.09,19.09,0,0,1-5,0,23.11,23.11,0,0,1-6.37-1.69,17.3,17.3,0,0,1-5.76-3.87,12.29,12.29,0,0,1-3.21-6.58q-3.87-26.67-5.47-53t-1.9-48.24q0-3.37,2.45-4a8.58,8.58,0,0,1,5.27.34,27,27,0,0,1,9.85,6.91c2.42,2.82,3.62,5.46,3.62,7.93q-.1,6.75.07,14.18t.58,15.18q17.86-1.68,33.81-1.86a217.29,217.29,0,0,1,29.36,1.52q4.5.67,9.19,1.52a82.25,82.25,0,0,1,10.06,2.53,10.25,10.25,0,0,1,6.48,4.22c1.78,2.36,1.91,4.33.41,5.9a59.23,59.23,0,0,1-8.88,3.88,23.66,23.66,0,0,1-4.33,1.19q-41.05-2-74.73,3.36.75,7.77,1.4,15T1544.77,1457.41Zm-48.08,79.29a37.58,37.58,0,0,1-11-12.32q-4-7.26-4.45-9.61-14.61-54.35-15-106.3a117,117,0,0,1,1.36-12.81c.65-3.83,1.66-5.75,3-5.75a13,13,0,0,1,5.3,1.35,23,23,0,0,1,5.32,3.38,21.89,21.89,0,0,1,4,4.39,11.77,11.77,0,0,1,2,4.38,354.07,354.07,0,0,0,4.8,66q5.51,32.89,13.49,65.63c.42,2.25-.35,3.59-2.29,4a4.93,4.93,0,0,1-3.28-.49A33.26,33.26,0,0,1,1496.69,1536.7Z"/><path class="cls-18" d="M1394.72,1045.08l5-1c9.53-1.94,19-3.78,28.56-5.78,15.23-3.2,30.85-6.8,45.79-11.15,2.28-.67,7.5-3.06,12.18-4.54a37.1,37.1,0,0,1,3.9-.88,6.56,6.56,0,0,0,4-12.48c-2.09-.78-5.4-.85-9.17.09-5.17,1.3-11.86,4.43-14.55,5.21-14.6,4.26-29.9,7.78-44.81,10.91-9.5,2-19,3.83-28.48,5.76a57.92,57.92,0,0,0-8.17,1.88,8.64,8.64,0,0,0-4.09,3.19,6.68,6.68,0,0,0,8.52,9.74A6.67,6.67,0,0,0,1394.72,1045.08Zm1.53-7.62a6.41,6.41,0,0,1,.62,2.75A5.79,5.79,0,0,0,1396.25,1037.46Z"/><path class="cls-18" d="M1389.77,1111.85c4.54.33,9.68-1.9,14-2.92,9.68-2.31,19.19-5,28.81-7.49,22.62-6,47-10,68.59-18.81a6.56,6.56,0,0,0-4.92-12.16c-21.13,8.59-44.92,12.44-67,18.29-9.53,2.51-18.94,5.12-28.51,7.4-2,.47-4.15,1.26-6.33,1.91a10.26,10.26,0,0,1-3.74.7,6.56,6.56,0,0,0-1,13.08Z"/></g></g></svg>